<svg id="kity_svg_6" xmlns="http://www.w3.org/2000/svg" xmlns:xlink="http://www.w3.org/1999/xlink" version="1.1" width="575" height="234" style="background: rgb(251, 251, 251); visibility: visible;" viewBox="0 0 575 234"><defs id="kity_defs_7"><linearGradient id="kity_linearGradient_17" x1="0" y1="0" x2="0" y2="1"><stop id="kity_stop_18" offset="0" stop-color="rgb(255, 255, 255)"></stop><stop id="kity_stop_19" offset="1" stop-color="rgb(204, 204, 204)"></stop></linearGradient><marker id="kity_marker_2" orient="auto" refX="6" refY="0" viewBox="-7 -7 14 14" markerWidth="7" markerHeight="7" markerUnits="userSpaceOnUse"><path id="kity_path_3" fill="rgb(191, 147, 115)" stroke="none" d="M6,0A6,6,0,1,1,-6,0A6,6,0,1,1,6,0"></path></marker></defs><g id="kity_g_8"><g id="minder1" text-rendering="optimize-speed"><g id="minder_connect_group1"><path id="kity_path_31" fill="none" stroke="rgb(191, 147, 115)" stroke-width="1" d="M285.5,117.5A74,84,0,0,1,359.5,33.5"></path><path id="kity_path_41" fill="none" stroke="rgb(191, 147, 115)" stroke-width="1" d="M285.5,117.5A74,42,0,0,1,359.5,75.5"></path><path id="kity_path_50" fill="none" stroke="rgb(191, 147, 115)" stroke-width="1" d="M285.5,117.5A74,0,0,0,1,359.5,117.5"></path><path id="kity_path_59" fill="none" stroke="rgb(191, 147, 115)" stroke-width="1" d="M285.5,117.5A74,42,0,0,0,359.5,159.5"></path><path id="kity_path_68" fill="none" stroke="rgb(191, 147, 115)" stroke-width="1" d="M285.5,117.5A74,84,0,0,0,359.5,201.5"></path><path id="kity_path_77" fill="none" stroke="rgb(191, 147, 115)" stroke-width="1" d="M285.5,117.5A74,84,0,0,0,211.5,33.5"></path><path id="kity_path_86" fill="none" stroke="rgb(191, 147, 115)" stroke-width="1" d="M285.5,117.5A74,42,0,0,0,211.5,75.5"></path><path id="kity_path_95" fill="none" stroke="rgb(191, 147, 115)" stroke-width="1" d="M285.5,117.5A74,0,0,0,1,211.5,117.5"></path><path id="kity_path_104" fill="none" stroke="rgb(191, 147, 115)" stroke-width="1" d="M285.5,117.5A74,42,0,0,1,211.5,159.5"></path><path id="kity_path_113" fill="none" stroke="rgb(191, 147, 115)" stroke-width="1" d="M285.5,117.5A74,84,0,0,1,211.5,201.5"></path></g><g id="minder_node1"><path id="kity_path_39" fill="rgba(0, 0, 0, .25)" stroke="none" d="M240.5,100.5h145a22,22,0,0,1,22,22v0a22,22,0,0,1,-22,22h-145a22,22,0,0,1,-22,-22v0a22,22,0,0,1,22,-22z" display="none"></path><path id="node_outline1" fill="rgb(191, 147, 115)" stroke="rgb(191, 147, 115)" d="M232.5,103.5h106a5,5,0,0,1,5,5v18a5,5,0,0,1,-5,5h-106a5,5,0,0,1,-5,-5v-18a5,5,0,0,1,5,-5z" stroke-width="3"></path><g id="node_text1" fill="white"><text id="kity_text_22" text-rendering="inherit" font-size="16" dy=".8em" y="109.5" font-family="微软雅黑,Microsoft YaHei" x="239.5">Java 8 新特性</text></g></g><g id="kity_g_12"><path id="kity_path_13" fill="none" stroke="none" d="M239.5,117.5h0v0h0z"></path></g><g id="kity_g_14"><path id="kity_path_15" fill="none" stroke="none" d="M239.5,117.5h0v0h0z"></path><path id="kity_path_16" fill="none" stroke="none"></path></g><g id="minder_node2"><path id="kity_path_38" fill="rgba(0, 0, 0, .25)" stroke="none" d="M380.5,25.5h119a10,10,0,0,1,10,10v6a10,10,0,0,1,-10,10h-119a10,10,0,0,1,-10,-10v-6a10,10,0,0,1,10,-10z" display="none"></path><g id="node_expander1" style="cursor: pointer;" display="none"><path id="kity_path_36" fill="white" stroke="gray" d="M360.5,33.5A6,6,0,1,1,348.5,33.5A6,6,0,1,1,360.5,33.5"></path><path id="kity_path_37" fill="none" stroke="gray"></path></g><path id="node_outline2" fill="rgb(246, 242, 238)" stroke="rgb(191, 147, 115)" d="M364.5,20.5h125a3,3,0,0,1,3,3v20a3,3,0,0,1,-3,3h-125a3,3,0,0,1,-3,-3v-20a3,3,0,0,1,3,-3z" stroke-width="1"></path><g id="node_text2" fill="black"><text id="kity_text_33" text-rendering="inherit" font-family="微软雅黑,Microsoft YaHei" font-size="14" dy=".8em" y="26.5" x="381.5">Lambda 表达式</text></g></g><g id="minder_node3"><path id="kity_path_48" fill="rgba(0, 0, 0, .25)" stroke="none" d="M380.5,67.5h135a10,10,0,0,1,10,10v6a10,10,0,0,1,-10,10h-135a10,10,0,0,1,-10,-10v-6a10,10,0,0,1,10,-10z" display="none"></path><g id="node_expander2" style="cursor: pointer;" display="none"><path id="kity_path_46" fill="white" stroke="gray" d="M360.5,75.5A6,6,0,1,1,348.5,75.5A6,6,0,1,1,360.5,75.5"></path><path id="kity_path_47" fill="none" stroke="gray"></path></g><path id="node_outline3" fill="rgb(246, 242, 238)" stroke="rgb(191, 147, 115)" d="M364.5,62.5h144a3,3,0,0,1,3,3v20a3,3,0,0,1,-3,3h-144a3,3,0,0,1,-3,-3v-20a3,3,0,0,1,3,-3z" stroke-width="1"></path><g id="node_text3" fill="black"><text id="kity_text_43" text-rendering="inherit" font-size="14" dy=".8em" y="68.5" font-family="微软雅黑,Microsoft YaHei" x="381.5">新的日期时间 API</text></g></g><g id="minder_node4"><path id="kity_path_57" fill="rgba(0, 0, 0, .25)" stroke="none" d="M380.5,109.5h98a10,10,0,0,1,10,10v6a10,10,0,0,1,-10,10h-98a10,10,0,0,1,-10,-10v-6a10,10,0,0,1,10,-10z" display="none"></path><g id="node_expander3" style="cursor: pointer;" display="none"><path id="kity_path_55" fill="white" stroke="gray" d="M360.5,117.5A6,6,0,1,1,348.5,117.5A6,6,0,1,1,360.5,117.5"></path><path id="kity_path_56" fill="none" stroke="gray"></path></g><path id="node_outline4" fill="rgb(246, 242, 238)" stroke="rgb(191, 147, 115)" d="M364.5,104.5h101a3,3,0,0,1,3,3v20a3,3,0,0,1,-3,3h-101a3,3,0,0,1,-3,-3v-20a3,3,0,0,1,3,-3z" stroke-width="1"></path><g id="node_text4" fill="black"><text id="kity_text_52" text-rendering="inherit" font-size="14" dy=".8em" y="110.5" font-family="微软雅黑,Microsoft YaHei" x="381.5">Optional 类</text></g></g><g id="minder_node5"><path id="kity_path_66" fill="rgba(0, 0, 0, .25)" stroke="none" d="M380.5,151.5h186a10,10,0,0,1,10,10v6a10,10,0,0,1,-10,10h-186a10,10,0,0,1,-10,-10v-6a10,10,0,0,1,10,-10z" display="none"></path><g id="node_expander4" style="cursor: pointer;" display="none"><path id="kity_path_64" fill="white" stroke="gray" d="M360.5,159.5A6,6,0,1,1,348.5,159.5A6,6,0,1,1,360.5,159.5"></path><path id="kity_path_65" fill="none" stroke="gray"></path></g><path id="node_outline5" fill="rgb(246, 242, 238)" stroke="rgb(191, 147, 115)" d="M364.5,146.5h188a3,3,0,0,1,3,3v20a3,3,0,0,1,-3,3h-188a3,3,0,0,1,-3,-3v-20a3,3,0,0,1,3,-3z" stroke-width="1"></path><g id="node_text5" fill="black"><text id="kity_text_61" text-rendering="inherit" font-size="14" dy=".8em" y="152.5" font-family="微软雅黑,Microsoft YaHei" x="381.5">支持在接口添加默认方法</text></g></g><g id="minder_node6"><path id="kity_path_75" fill="rgba(0, 0, 0, .25)" stroke="none" d="M380.5,193.5h93a10,10,0,0,1,10,10v6a10,10,0,0,1,-10,10h-93a10,10,0,0,1,-10,-10v-6a10,10,0,0,1,10,-10z" display="none"></path><g id="node_expander5" style="cursor: pointer;" display="none"><path id="kity_path_73" fill="white" stroke="gray" d="M360.5,201.5A6,6,0,1,1,348.5,201.5A6,6,0,1,1,360.5,201.5"></path><path id="kity_path_74" fill="none" stroke="gray"></path></g><path id="node_outline6" fill="rgb(246, 242, 238)" stroke="rgb(191, 147, 115)" d="M364.5,188.5h99a3,3,0,0,1,3,3v20a3,3,0,0,1,-3,3h-99a3,3,0,0,1,-3,-3v-20a3,3,0,0,1,3,-3z" stroke-width="1"></path><g id="node_text6" fill="black"><text id="kity_text_70" text-rendering="inherit" font-size="14" dy=".8em" y="194.5" font-family="微软雅黑,Microsoft YaHei" x="381.5">Stream API</text></g></g><g id="minder_node7"><path id="kity_path_84" fill="rgba(0, 0, 0, .25)" stroke="none" d="M101.5,25.5h116a10,10,0,0,1,10,10v6a10,10,0,0,1,-10,10h-116a10,10,0,0,1,-10,-10v-6a10,10,0,0,1,10,-10z" display="none"></path><g id="node_expander6" style="cursor: pointer;" display="none"><path id="kity_path_82" fill="white" stroke="gray" d="M222.5,33.5A6,6,0,1,1,210.5,33.5A6,6,0,1,1,222.5,33.5"></path><path id="kity_path_83" fill="none" stroke="gray"></path></g><path id="node_outline7" fill="rgb(246, 242, 238)" stroke="rgb(191, 147, 115)" d="M85.5,20.5h121a3,3,0,0,1,3,3v20a3,3,0,0,1,-3,3h-121a3,3,0,0,1,-3,-3v-20a3,3,0,0,1,3,-3z" stroke-width="1"></path><g id="node_text7" fill="black"><text id="kity_text_79" text-rendering="inherit" font-size="14" dy=".8em" y="26.5" font-family="微软雅黑,Microsoft YaHei" x="102.5">Base64 工具类</text></g></g><g id="minder_node8"><path id="kity_path_93" fill="rgba(0, 0, 0, .25)" stroke="none" d="M48.5,67.5h170a10,10,0,0,1,10,10v6a10,10,0,0,1,-10,10h-170a10,10,0,0,1,-10,-10v-6a10,10,0,0,1,10,-10z" display="none"></path><g id="node_expander7" style="cursor: pointer;" display="none"><path id="kity_path_91" fill="white" stroke="gray" d="M222.5,75.5A6,6,0,1,1,210.5,75.5A6,6,0,1,1,222.5,75.5"></path><path id="kity_path_92" fill="none" stroke="gray"></path></g><path id="node_outline8" fill="rgb(246, 242, 238)" stroke="rgb(191, 147, 115)" d="M32.5,62.5h174a3,3,0,0,1,3,3v20a3,3,0,0,1,-3,3h-174a3,3,0,0,1,-3,-3v-20a3,3,0,0,1,3,-3z" stroke-width="1"></path><g id="node_text8" fill="black"><text id="kity_text_88" text-rendering="inherit" font-size="14" dy=".8em" y="68.5" font-family="微软雅黑,Microsoft YaHei" x="49.5">方法引用和构造器引用</text></g></g><g id="minder_node9"><path id="kity_path_102" fill="rgba(0, 0, 0, .25)" stroke="none" d="M132.5,109.5h74a10,10,0,0,1,10,10v6a10,10,0,0,1,-10,10h-74a10,10,0,0,1,-10,-10v-6a10,10,0,0,1,10,-10z" display="none"></path><g id="node_expander8" style="cursor: pointer;" display="none"><path id="kity_path_100" fill="white" stroke="gray" d="M222.5,117.5A6,6,0,1,1,210.5,117.5A6,6,0,1,1,222.5,117.5"></path><path id="kity_path_101" fill="none" stroke="gray"></path></g><path id="node_outline9" fill="rgb(246, 242, 238)" stroke="rgb(191, 147, 115)" d="M116.5,104.5h90a3,3,0,0,1,3,3v20a3,3,0,0,1,-3,3h-90a3,3,0,0,1,-3,-3v-20a3,3,0,0,1,3,-3z" stroke-width="1"></path><g id="node_text9" fill="black"><text id="kity_text_97" text-rendering="inherit" font-size="14" dy=".8em" y="110.5" font-family="微软雅黑,Microsoft YaHei" x="133.5">类型注解</text></g></g><g id="minder_node10"><path id="kity_path_111" fill="rgba(0, 0, 0, .25)" stroke="none" d="M132.5,151.5h74a10,10,0,0,1,10,10v6a10,10,0,0,1,-10,10h-74a10,10,0,0,1,-10,-10v-6a10,10,0,0,1,10,-10z" display="none"></path><g id="node_expander9" style="cursor: pointer;" display="none"><path id="kity_path_109" fill="white" stroke="gray" d="M222.5,159.5A6,6,0,1,1,210.5,159.5A6,6,0,1,1,222.5,159.5"></path><path id="kity_path_110" fill="none" stroke="gray"></path></g><path id="node_outline10" fill="rgb(246, 242, 238)" stroke="rgb(191, 147, 115)" d="M116.5,146.5h90a3,3,0,0,1,3,3v20a3,3,0,0,1,-3,3h-90a3,3,0,0,1,-3,-3v-20a3,3,0,0,1,3,-3z" stroke-width="1"></path><g id="node_text10" fill="black"><text id="kity_text_106" text-rendering="inherit" font-size="14" dy=".8em" y="152.5" font-family="微软雅黑,Microsoft YaHei" x="133.5">类型推断</text></g></g><g id="minder_node11"><path id="kity_path_120" fill="rgba(0, 0, 0, .25)" stroke="none" d="M39.5,193.5h201a10,10,0,0,1,10,10v6a10,10,0,0,1,-10,10h-201a10,10,0,0,1,-10,-10v-6a10,10,0,0,1,10,-10z" display="none"></path><g id="node_expander10" style="cursor: pointer;" display="none"><path id="kity_path_118" fill="white" stroke="gray" d="M222.5,201.5A6,6,0,1,1,210.5,201.5A6,6,0,1,1,222.5,201.5"></path><path id="kity_path_119" fill="none" stroke="gray"></path></g><path id="node_outline11" fill="rgb(246, 242, 238)" stroke="rgb(191, 147, 115)" d="M23.5,188.5h183a3,3,0,0,1,3,3v20a3,3,0,0,1,-3,3h-183a3,3,0,0,1,-3,-3v-20a3,3,0,0,1,3,-3z" stroke-width="1"></path><g id="node_text11" fill="black"><text id="kity_text_115" text-rendering="inherit" font-size="14" dy=".8em" y="194.5" font-family="微软雅黑,Microsoft YaHei" x="40.5">可重复注解 @Repeatable</text></g></g></g></g></svg>