<svg id="kity_svg_6" xmlns="http://www.w3.org/2000/svg" xmlns:xlink="http://www.w3.org/1999/xlink" version="1.1" width="596" height="276" style="background: rgb(251, 251, 251); visibility: visible;" viewBox="0 0 596 276"><defs id="kity_defs_7"><linearGradient id="kity_linearGradient_17" x1="0" y1="0" x2="0" y2="1"><stop id="kity_stop_18" offset="0" stop-color="rgb(255, 255, 255)"></stop><stop id="kity_stop_19" offset="1" stop-color="rgb(204, 204, 204)"></stop></linearGradient><marker id="kity_marker_2" orient="auto" refX="6" refY="0" viewBox="-7 -7 14 14" markerWidth="7" markerHeight="7" markerUnits="userSpaceOnUse"><path id="kity_path_3" fill="rgb(191, 147, 115)" stroke="none" d="M6,0A6,6,0,1,1,-6,0A6,6,0,1,1,6,0"></path></marker></defs><g id="kity_g_8"><g id="minder1" text-rendering="optimize-speed"><g id="minder_connect_group1"><path id="kity_path_31" fill="none" stroke="rgb(191, 147, 115)" stroke-width="1" d="M301.5,138.5A79,105,0,0,1,380.5,33.5"></path><path id="kity_path_33" fill="none" stroke="rgb(191, 147, 115)" stroke-width="1" d="M301.5,138.5A79,63,0,0,1,380.5,75.5"></path><path id="kity_path_35" fill="none" stroke="rgb(191, 147, 115)" stroke-width="1" d="M301.5,138.5A79,21,0,0,1,380.5,117.5"></path><path id="kity_path_37" fill="none" stroke="rgb(191, 147, 115)" stroke-width="1" d="M301.5,138.5A79,21,0,0,0,380.5,159.5"></path><path id="kity_path_39" fill="none" stroke="rgb(191, 147, 115)" stroke-width="1" d="M301.5,138.5A79,63,0,0,0,380.5,201.5"></path><path id="kity_path_41" fill="none" stroke="rgb(191, 147, 115)" stroke-width="1" d="M301.5,138.5A79,105,0,0,0,380.5,243.5"></path><path id="kity_path_43" fill="none" stroke="rgb(191, 147, 115)" stroke-width="1" d="M301.5,138.5A79,84,0,0,0,222.5,54.5"></path><path id="kity_path_45" fill="none" stroke="rgb(191, 147, 115)" stroke-width="1" d="M301.5,138.5A79,42,0,0,0,222.5,96.5"></path><path id="kity_path_47" fill="none" stroke="rgb(191, 147, 115)" stroke-width="1" d="M301.5,138.5A79,0,0,0,1,222.5,138.5"></path><path id="kity_path_49" fill="none" stroke="rgb(191, 147, 115)" stroke-width="1" d="M301.5,138.5A79,42,0,0,1,222.5,180.5"></path><path id="kity_path_111" fill="none" stroke="rgb(191, 147, 115)" stroke-width="1" d="M301.5,138.5A79,84,0,0,1,222.5,222.5"></path></g><g id="minder_node1"><path id="node_outline1" fill="rgb(191, 147, 115)" stroke="rgb(191, 147, 115)" d="M243.5,124.5h116a5,5,0,0,1,5,5v18a5,5,0,0,1,-5,5h-116a5,5,0,0,1,-5,-5v-18a5,5,0,0,1,5,-5z" stroke-width="3"></path><g id="node_text1" fill="white"><text id="kity_text_22" text-rendering="inherit" font-size="16" dy=".8em" y="130.5" font-family="微软雅黑,Microsoft YaHei" x="250.5">Java 8 新特性</text></g></g><g id="kity_g_12"><path id="kity_path_13" fill="none" stroke="none" d="M250.5,138.5h0v0h0z"></path></g><g id="kity_g_14"><path id="kity_path_15" fill="none" stroke="none" d="M250.5,138.5h0v0h0z"></path><path id="kity_path_16" fill="none" stroke="none"></path></g><g id="minder_node2"><g id="node_expander1" style="cursor: pointer;" display="none"><path id="kity_path_81" fill="white" stroke="gray" d="M381.5,33.5A6,6,0,1,1,369.5,33.5A6,6,0,1,1,381.5,33.5"></path><path id="kity_path_82" fill="none" stroke="gray"></path></g><path id="node_outline2" fill="rgb(246, 242, 238)" stroke="rgb(191, 147, 115)" d="M385.5,20.5h133a3,3,0,0,1,3,3v20a3,3,0,0,1,-3,3h-133a3,3,0,0,1,-3,-3v-20a3,3,0,0,1,3,-3z" stroke-width="1"></path><g id="node_text2" fill="black"><text id="kity_text_51" text-rendering="inherit" font-family="微软雅黑,Microsoft YaHei" font-size="14" dy=".8em" y="26.5" x="402.5">Lambda 表达式</text></g></g><g id="minder_node3"><g id="node_expander2" style="cursor: pointer;" display="none"><path id="kity_path_84" fill="white" stroke="gray" d="M381.5,75.5A6,6,0,1,1,369.5,75.5A6,6,0,1,1,381.5,75.5"></path><path id="kity_path_85" fill="none" stroke="gray"></path></g><path id="node_outline3" fill="rgb(246, 242, 238)" stroke="rgb(191, 147, 115)" d="M385.5,62.5h144a3,3,0,0,1,3,3v20a3,3,0,0,1,-3,3h-144a3,3,0,0,1,-3,-3v-20a3,3,0,0,1,3,-3z" stroke-width="1"></path><g id="node_text3" fill="black"><text id="kity_text_53" text-rendering="inherit" font-family="微软雅黑,Microsoft YaHei" font-size="14" dy=".8em" y="68.5" x="402.5">新的日期时间 API</text></g></g><g id="minder_node4"><g id="node_expander3" style="cursor: pointer;" display="none"><path id="kity_path_87" fill="white" stroke="gray" d="M381.5,117.5A6,6,0,1,1,369.5,117.5A6,6,0,1,1,381.5,117.5"></path><path id="kity_path_88" fill="none" stroke="gray"></path></g><path id="node_outline4" fill="rgb(246, 242, 238)" stroke="rgb(191, 147, 115)" d="M385.5,104.5h107a3,3,0,0,1,3,3v20a3,3,0,0,1,-3,3h-107a3,3,0,0,1,-3,-3v-20a3,3,0,0,1,3,-3z" stroke-width="1"></path><g id="node_text4" fill="black"><text id="kity_text_55" text-rendering="inherit" font-family="微软雅黑,Microsoft YaHei" font-size="14" dy=".8em" y="110.5" x="402.5">Optional 类</text></g></g><g id="minder_node5"><g id="node_expander4" style="cursor: pointer;" display="none"><path id="kity_path_90" fill="white" stroke="gray" d="M381.5,159.5A6,6,0,1,1,369.5,159.5A6,6,0,1,1,381.5,159.5"></path><path id="kity_path_91" fill="none" stroke="gray"></path></g><path id="node_outline5" fill="rgb(246, 242, 238)" stroke="rgb(191, 147, 115)" d="M385.5,146.5h188a3,3,0,0,1,3,3v20a3,3,0,0,1,-3,3h-188a3,3,0,0,1,-3,-3v-20a3,3,0,0,1,3,-3z" stroke-width="1"></path><g id="node_text5" fill="black"><text id="kity_text_57" text-rendering="inherit" font-family="微软雅黑,Microsoft YaHei" font-size="14" dy=".8em" y="152.5" x="402.5">支持在接口添加默认方法</text></g></g><g id="minder_node6"><g id="node_expander5" style="cursor: pointer;" display="none"><path id="kity_path_93" fill="white" stroke="gray" d="M381.5,201.5A6,6,0,1,1,369.5,201.5A6,6,0,1,1,381.5,201.5"></path><path id="kity_path_94" fill="none" stroke="gray"></path></g><path id="node_outline6" fill="rgb(246, 242, 238)" stroke="rgb(191, 147, 115)" d="M385.5,188.5h107a3,3,0,0,1,3,3v20a3,3,0,0,1,-3,3h-107a3,3,0,0,1,-3,-3v-20a3,3,0,0,1,3,-3z" stroke-width="1"></path><g id="node_text6" fill="black"><text id="kity_text_59" text-rendering="inherit" font-family="微软雅黑,Microsoft YaHei" font-size="14" dy=".8em" y="194.5" x="402.5">Stream API</text></g></g><g id="minder_node7"><g id="node_expander6" style="cursor: pointer;" display="none"><path id="kity_path_96" fill="white" stroke="gray" d="M381.5,243.5A6,6,0,1,1,369.5,243.5A6,6,0,1,1,381.5,243.5"></path><path id="kity_path_97" fill="none" stroke="gray"></path></g><path id="node_outline7" fill="rgb(246, 242, 238)" stroke="rgb(191, 147, 115)" d="M385.5,230.5h130a3,3,0,0,1,3,3v20a3,3,0,0,1,-3,3h-130a3,3,0,0,1,-3,-3v-20a3,3,0,0,1,3,-3z" stroke-width="1"></path><g id="node_text7" fill="black"><text id="kity_text_61" text-rendering="inherit" font-family="微软雅黑,Microsoft YaHei" font-size="14" dy=".8em" y="236.5" x="402.5">Base64 工具类</text></g></g><g id="minder_node8"><g id="node_expander7" style="cursor: pointer;" display="none"><path id="kity_path_99" fill="white" stroke="gray" d="M233.5,54.5A6,6,0,1,1,221.5,54.5A6,6,0,1,1,233.5,54.5"></path><path id="kity_path_100" fill="none" stroke="gray"></path></g><path id="node_outline8" fill="rgb(246, 242, 238)" stroke="rgb(191, 147, 115)" d="M43.5,41.5h174a3,3,0,0,1,3,3v20a3,3,0,0,1,-3,3h-174a3,3,0,0,1,-3,-3v-20a3,3,0,0,1,3,-3z" stroke-width="1"></path><g id="node_text8" fill="black"><text id="kity_text_63" text-rendering="inherit" font-family="微软雅黑,Microsoft YaHei" font-size="14" dy=".8em" y="47.5" x="60.5">方法引用和构造器引用</text></g></g><g id="minder_node9"><g id="node_expander8" style="cursor: pointer;" display="none"><path id="kity_path_102" fill="white" stroke="gray" d="M233.5,96.5A6,6,0,1,1,221.5,96.5A6,6,0,1,1,233.5,96.5"></path><path id="kity_path_103" fill="none" stroke="gray"></path></g><path id="node_outline9" fill="rgb(246, 242, 238)" stroke="rgb(191, 147, 115)" d="M127.5,83.5h90a3,3,0,0,1,3,3v20a3,3,0,0,1,-3,3h-90a3,3,0,0,1,-3,-3v-20a3,3,0,0,1,3,-3z" stroke-width="1"></path><g id="node_text9" fill="black"><text id="kity_text_65" text-rendering="inherit" font-family="微软雅黑,Microsoft YaHei" font-size="14" dy=".8em" y="89.5" x="144.5">类型注解</text></g></g><g id="minder_node10"><g id="node_expander9" style="cursor: pointer;" display="none"><path id="kity_path_105" fill="white" stroke="gray" d="M233.5,138.5A6,6,0,1,1,221.5,138.5A6,6,0,1,1,233.5,138.5"></path><path id="kity_path_106" fill="none" stroke="gray"></path></g><path id="node_outline10" fill="rgb(246, 242, 238)" stroke="rgb(191, 147, 115)" d="M127.5,125.5h90a3,3,0,0,1,3,3v20a3,3,0,0,1,-3,3h-90a3,3,0,0,1,-3,-3v-20a3,3,0,0,1,3,-3z" stroke-width="1"></path><g id="node_text10" fill="black"><text id="kity_text_67" text-rendering="inherit" font-family="微软雅黑,Microsoft YaHei" font-size="14" dy=".8em" y="131.5" x="144.5">类型推断</text></g></g><g id="minder_node11"><g id="node_expander10" style="cursor: pointer;" display="none"><path id="kity_path_108" fill="white" stroke="gray" d="M233.5,180.5A6,6,0,1,1,221.5,180.5A6,6,0,1,1,233.5,180.5"></path><path id="kity_path_109" fill="none" stroke="gray"></path></g><path id="node_outline11" fill="rgb(246, 242, 238)" stroke="rgb(191, 147, 115)" d="M23.5,167.5h194a3,3,0,0,1,3,3v20a3,3,0,0,1,-3,3h-194a3,3,0,0,1,-3,-3v-20a3,3,0,0,1,3,-3z" stroke-width="1"></path><g id="node_text11" fill="black"><text id="kity_text_69" text-rendering="inherit" font-family="微软雅黑,Microsoft YaHei" font-size="14" dy=".8em" y="173.5" x="40.5">可重复注解 @Repeatable</text></g></g><g id="minder_node12"><g id="node_expander11" style="cursor: pointer;" display="none"><path id="kity_path_116" fill="white" stroke="gray" d="M233.5,222.5A6,6,0,1,1,221.5,222.5A6,6,0,1,1,233.5,222.5"></path><path id="kity_path_117" fill="none" stroke="gray"></path></g><path id="node_outline12" fill="rgb(246, 242, 238)" stroke="rgb(191, 147, 115)" d="M57.5,209.5h160a3,3,0,0,1,3,3v20a3,3,0,0,1,-3,3h-160a3,3,0,0,1,-3,-3v-20a3,3,0,0,1,3,-3z" stroke-width="1"></path><g id="node_text12" fill="black"><text id="kity_text_113" text-rendering="inherit" font-size="14" dy=".8em" y="215.5" font-family="微软雅黑,Microsoft YaHei" x="74.5">实用并发工具的扩展</text></g></g></g></g></svg>