<svg xmlns="http://www.w3.org/2000/svg" width="428.862548828125" height="208.89175415039062" viewBox="-188.5446319580078 -37.850364685058594 428.862548828125 208.89175415039062"><title>Neo4j Graph Visualization</title><desc>Created using Neo4j (http://www.neo4j.com/)</desc><g class="layer relationships"><g class="relationship" transform="translate(-32.17507429445388 90.80228494225172) rotate(302.16067069209817)"><path class="b-outline" fill="#A5ABB6" stroke="none" d="M 25 0.5 L 33.14550947775104 0.5 L 33.14550947775104 -0.5 L 25 -0.5 Z M 77.5694749318526 0.5 L 85.71498440960364 0.5 L 85.71498440960364 3.5 L 92.71498440960364 0 L 85.71498440960364 -3.5 L 85.71498440960364 -0.5 L 77.5694749318526 -0.5 Z"/><text text-anchor="middle" pointer-events="none" font-size="8px" fill="#000000" x="55.35749220480182" y="3" font-family="Helvetica Neue, Helvetica, Arial, sans-serif">ACTED_IN</text></g><g class="relationship" transform="translate(-32.17507429445388 90.80228494225172) rotate(205.11027537035318)"><path class="b-outline" fill="#A5ABB6" stroke="none" d="M 25 0.5 L 44.124697075460546 0.5 L 44.124697075460546 -0.5 L 25 -0.5 Z M 88.54866252956211 0.5 L 107.67335960502265 0.5 L 107.67335960502265 3.5 L 114.67335960502265 0 L 107.67335960502265 -3.5 L 107.67335960502265 -0.5 L 88.54866252956211 -0.5 Z"/><text text-anchor="middle" pointer-events="none" font-size="8px" fill="#000000" x="66.33667980251133" y="3" transform="rotate(180 66.33667980251133 0)" font-family="Helvetica Neue, Helvetica, Arial, sans-serif">ACTED_IN</text></g><g class="relationship" transform="translate(-32.17507429445388 90.80228494225172) rotate(518.0857177061669)"><path class="b-outline" fill="#A5ABB6" stroke="none" d="M 25 0.5 L 42.932849023440255 0.5 L 42.932849023440255 -0.5 L 25 -0.5 Z M 87.35681447754182 0.5 L 105.28966350098207 0.5 L 105.28966350098207 3.5 L 112.28966350098207 0 L 105.28966350098207 -3.5 L 105.28966350098207 -0.5 L 87.35681447754182 -0.5 Z"/><text text-anchor="middle" pointer-events="none" font-size="8px" fill="#000000" x="65.14483175049104" y="3" transform="rotate(180 65.14483175049104 0)" font-family="Helvetica Neue, Helvetica, Arial, sans-serif">ACTED_IN</text></g><g class="relationship" transform="translate(102.64442040566468 91.82145434449467) rotate(234.3674964083928)"><path class="b-outline" fill="#A5ABB6" stroke="none" d="M 25 0.5 L 36.21929559696547 0.5 L 36.21929559696547 -0.5 L 25 -0.5 Z M 80.64326105106704 0.5 L 91.86255664803251 0.5 L 91.86255664803251 3.5 L 98.86255664803251 0 L 91.86255664803251 -3.5 L 91.86255664803251 -0.5 L 80.64326105106704 -0.5 Z"/><text text-anchor="middle" pointer-events="none" font-size="8px" fill="#000000" x="58.431278324016255" y="3" transform="rotate(180 58.431278324016255 0)" font-family="Helvetica Neue, Helvetica, Arial, sans-serif">ACTED_IN</text></g><g class="relationship" transform="translate(102.64442040566468 91.82145434449467) rotate(329.9373979830056)"><path class="b-outline" fill="#A5ABB6" stroke="none" d="M 25 0.5 L 37.07033360567413 0.5 L 37.07033360567413 -0.5 L 25 -0.5 Z M 81.4942990597757 0.5 L 93.56463266544982 0.5 L 93.56463266544982 3.5 L 100.56463266544982 0 L 93.56463266544982 -3.5 L 93.56463266544982 -0.5 L 81.4942990597757 -0.5 Z"/><text text-anchor="middle" pointer-events="none" font-size="8px" fill="#000000" x="59.28231633272491" y="3" font-family="Helvetica Neue, Helvetica, Arial, sans-serif">ACTED_IN</text></g></g><g class="layer nodes"><g class="node" aria-label="graph-node0" transform="translate(-32.17507429445388,90.80228494225172)"><circle class="b-outline" cx="0" cy="0" r="25" fill="#F79767" stroke="#f36924" stroke-width="2px"/><text class="caption" text-anchor="middle" pointer-events="none" x="0" y="5" font-size="10px" fill="#FFFFFF" font-family="Helvetica Neue, Helvetica, Arial, sans-serif"> 吴京</text></g><g class="node" aria-label="graph-node2" transform="translate(30.484058841429174,-8.850364742605692)"><circle class="b-outline" cx="0" cy="0" r="25" fill="#C990C0" stroke="#b261a5" stroke-width="2px"/><text class="caption" text-anchor="middle" pointer-events="none" x="0" y="5" font-size="10px" fill="#FFFFFF" font-family="Helvetica Neue, Helvetica, Arial, sans-serif"> 战狼 Ⅱ</text></g><g class="node" aria-label="graph-node3" transform="translate(-158.6482830485193,31.53024388742918)"><circle class="b-outline" cx="0" cy="0" r="25" fill="#C990C0" stroke="#b261a5" stroke-width="2px"/><text class="caption" text-anchor="middle" pointer-events="none" x="0" y="5" font-size="10px" fill="#FFFFFF" font-family="Helvetica Neue, Helvetica, Arial, sans-serif"> 太极宗师</text></g><g class="node" aria-label="graph-node4" transform="translate(-159.5446328020961,142.04140349225406)"><circle class="b-outline" cx="0" cy="0" r="25" fill="#C990C0" stroke="#b261a5" stroke-width="2px"/><text class="caption" text-anchor="middle" pointer-events="none" x="0" y="0" font-size="10px" fill="#FFFFFF" font-family="Helvetica Neue, Helvetica, Arial, sans-serif"> 流浪地球</text><text class="caption" text-anchor="middle" pointer-events="none" x="0" y="10" font-size="10px" fill="#FFFFFF" font-family="Helvetica Neue, Helvetica, Arial, sans-serif"> Ⅱ</text></g><g class="node" aria-label="graph-node1" transform="translate(102.64442040566468,91.82145434449467)"><circle class="b-outline" cx="0" cy="0" r="25" fill="#F79767" stroke="#f36924" stroke-width="2px"/><text class="caption" text-anchor="middle" pointer-events="none" x="0" y="5" font-size="10px" fill="#FFFFFF" font-family="Helvetica Neue, Helvetica, Arial, sans-serif"> 卢靖姗</text></g><g class="node" aria-label="graph-node5" transform="translate(211.31792054708876,28.92036259386407)"><circle class="b-outline" cx="0" cy="0" r="25" fill="#C990C0" stroke="#b261a5" stroke-width="2px"/><text class="caption" text-anchor="middle" pointer-events="none" x="0" y="5" font-size="10px" fill="#FFFFFF" font-family="Helvetica Neue, Helvetica, Arial, sans-serif"> 我和我…</text></g></g></svg>