<svg xmlns="http://www.w3.org/2000/svg" width="294.460205078125" height="337.12396240234375" viewBox="-110.90345764160156 -152.65696716308594 294.460205078125 337.12396240234375"><title>Neo4j Graph Visualization</title><desc>Created using Neo4j (http://www.neo4j.com/)</desc><g class="layer relationships"><g class="relationship" transform="translate(96.20796240881185 155.46700528784342) rotate(236.04375281162328)"><path class="b-outline" fill="#A5ABB6" stroke="none" d="M 25 0.5 L 69.78627902762835 0.5 L 69.78627902762835 -0.5 L 25 -0.5 Z M 102.14624912040179 0.5 L 146.93252814803014 0.5 L 146.93252814803014 3.5 L 153.93252814803014 0 L 146.93252814803014 -3.5 L 146.93252814803014 -0.5 L 102.14624912040179 -0.5 Z"/><text text-anchor="middle" pointer-events="none" font-size="8px" fill="#000000" x="85.96626407401507" y="3" transform="rotate(180 85.96626407401507 0)" font-family="Helvetica Neue, Helvetica, Arial, sans-serif">RATED</text></g><g class="relationship" transform="translate(96.20796240881185 155.46700528784342) rotate(268.2929923185065)"><path class="b-outline" fill="#A5ABB6" stroke="none" d="M 25 0.5 L 42.68757015228055 0.5 L 42.68757015228055 -0.5 L 25 -0.5 Z M 75.047540245054 0.5 L 92.73511039733454 0.5 L 92.73511039733454 3.5 L 99.73511039733454 0 L 92.73511039733454 -3.5 L 92.73511039733454 -0.5 L 75.047540245054 -0.5 Z"/><text text-anchor="middle" pointer-events="none" font-size="8px" fill="#000000" x="58.86755519866727" y="3" transform="rotate(180 58.86755519866727 0)" font-family="Helvetica Neue, Helvetica, Arial, sans-serif">RATED</text></g><g class="relationship" transform="translate(154.55676114114127 -76.70819059639246) rotate(512.1155341480213)"><path class="b-outline" fill="#A5ABB6" stroke="none" d="M 25 0.5 L 69.86331217669535 0.5 L 69.86331217669535 -0.5 L 25 -0.5 Z M 102.22328226946878 0.5 L 147.08659444616413 0.5 L 147.08659444616413 3.5 L 154.08659444616413 0 L 147.08659444616413 -3.5 L 147.08659444616413 -0.5 L 102.22328226946878 -0.5 Z"/><text text-anchor="middle" pointer-events="none" font-size="8px" fill="#000000" x="86.04329722308206" y="3" transform="rotate(180 86.04329722308206 0)" font-family="Helvetica Neue, Helvetica, Arial, sans-serif">RATED</text></g><g class="relationship" transform="translate(154.55676114114127 -76.70819059639246) rotate(480.00077913512695)"><path class="b-outline" fill="#A5ABB6" stroke="none" d="M 25 0.5 L 42.38302338637268 0.5 L 42.38302338637268 -0.5 L 25 -0.5 Z M 74.74299347914612 0.5 L 92.12601686551879 0.5 L 92.12601686551879 3.5 L 99.12601686551879 0 L 92.12601686551879 -3.5 L 92.12601686551879 -0.5 L 74.74299347914612 -0.5 Z"/><text text-anchor="middle" pointer-events="none" font-size="8px" fill="#000000" x="58.563008432759396" y="3" transform="rotate(180 58.563008432759396 0)" font-family="Helvetica Neue, Helvetica, Arial, sans-serif">RATED</text></g><g class="relationship" transform="translate(66.8964136325512 -123.65696927193977) rotate(478.3866237669041)"><path class="b-outline" fill="#A5ABB6" stroke="none" d="M 25 0.5 L 54.6049807814597 0.5 L 54.6049807814597 -0.5 L 25 -0.5 Z M 86.96495087423314 0.5 L 116.56993165569284 0.5 L 116.56993165569284 3.5 L 123.56993165569284 0 L 116.56993165569284 -3.5 L 116.56993165569284 -0.5 L 86.96495087423314 -0.5 Z"/><text text-anchor="middle" pointer-events="none" font-size="8px" fill="#000000" x="70.78496582784642" y="3" transform="rotate(180 70.78496582784642 0)" font-family="Helvetica Neue, Helvetica, Arial, sans-serif">RATED</text></g><g class="relationship" transform="translate(66.8964136325512 -123.65696927193977) rotate(440.5899611670843)"><path class="b-outline" fill="#A5ABB6" stroke="none" d="M 25 0.5 L 58.59543508537415 0.5 L 58.59543508537415 -0.5 L 25 -0.5 Z M 90.95540517814759 0.5 L 124.55084026352174 0.5 L 124.55084026352174 3.5 L 131.55084026352174 0 L 124.55084026352174 -3.5 L 124.55084026352174 -0.5 L 90.95540517814759 -0.5 Z"/><text text-anchor="middle" pointer-events="none" font-size="8px" fill="#000000" x="74.77542013176087" y="3" font-family="Helvetica Neue, Helvetica, Arial, sans-serif">RATED</text></g><g class="relationship" transform="translate(-31.207686885689977 -106.53398616384457) rotate(436.40353784187107)"><path class="b-outline" fill="#A5ABB6" stroke="none" d="M 25 0.5 L 38.74887278761595 0.5 L 38.74887278761595 -0.5 L 25 -0.5 Z M 71.10884288038939 0.5 L 84.85771566800534 0.5 L 84.85771566800534 3.5 L 91.85771566800534 0 L 84.85771566800534 -3.5 L 84.85771566800534 -0.5 L 71.10884288038939 -0.5 Z"/><text text-anchor="middle" pointer-events="none" font-size="8px" fill="#000000" x="54.92885783400267" y="3" font-family="Helvetica Neue, Helvetica, Arial, sans-serif">RATED</text></g><g class="relationship" transform="translate(-31.207686885689977 -106.53398616384457) rotate(407.98724108904304)"><path class="b-outline" fill="#A5ABB6" stroke="none" d="M 25 0.5 L 72.73052061004447 0.5 L 72.73052061004447 -0.5 L 25 -0.5 Z M 105.0904907028179 0.5 L 152.82101131286237 0.5 L 152.82101131286237 3.5 L 159.82101131286237 0 L 152.82101131286237 -3.5 L 152.82101131286237 -0.5 L 105.0904907028179 -0.5 Z"/><text text-anchor="middle" pointer-events="none" font-size="8px" fill="#000000" x="88.91050565643118" y="3" font-family="Helvetica Neue, Helvetica, Arial, sans-serif">RATED</text></g><g class="relationship" transform="translate(-81.90346129038586 93.67514914700816) rotate(312.06140308394436)"><path class="b-outline" fill="#A5ABB6" stroke="none" d="M 25 0.5 L 38.65993353847509 0.5 L 38.65993353847509 -0.5 L 25 -0.5 Z M 71.01990363124852 0.5 L 84.67983716972361 0.5 L 84.67983716972361 3.5 L 91.67983716972361 0 L 84.67983716972361 -3.5 L 84.67983716972361 -0.5 L 71.01990363124852 -0.5 Z"/><text text-anchor="middle" pointer-events="none" font-size="8px" fill="#000000" x="54.839918584861806" y="3" font-family="Helvetica Neue, Helvetica, Arial, sans-serif">RATED</text></g><g class="relationship" transform="translate(-81.90346129038586 93.67514914700816) rotate(340.17046601441336)"><path class="b-outline" fill="#A5ABB6" stroke="none" d="M 25 0.5 L 73.01409019347963 0.5 L 73.01409019347963 -0.5 L 25 -0.5 Z M 105.37406028625307 0.5 L 153.3881504797327 0.5 L 153.3881504797327 3.5 L 160.3881504797327 0 L 153.3881504797327 -3.5 L 153.3881504797327 -0.5 L 105.37406028625307 -0.5 Z"/><text text-anchor="middle" pointer-events="none" font-size="8px" fill="#000000" x="89.19407523986635" y="3" font-family="Helvetica Neue, Helvetica, Arial, sans-serif">RATED</text></g><g class="relationship" transform="translate(-3.2543397037213397 154.77556094401834) rotate(269.8129832227925)"><path class="b-outline" fill="#A5ABB6" stroke="none" d="M 25 0.5 L 54.183762620387256 0.5 L 54.183762620387256 -0.5 L 25 -0.5 Z M 86.5437327131607 0.5 L 115.72749533354795 0.5 L 115.72749533354795 3.5 L 122.72749533354795 0 L 115.72749533354795 -3.5 L 115.72749533354795 -0.5 L 86.5437327131607 -0.5 Z"/><text text-anchor="middle" pointer-events="none" font-size="8px" fill="#000000" x="70.36374766677397" y="3" transform="rotate(180 70.36374766677397 0)" font-family="Helvetica Neue, Helvetica, Arial, sans-serif">RATED</text></g><g class="relationship" transform="translate(-3.2543397037213397 154.77556094401834) rotate(307.67614675809887)"><path class="b-outline" fill="#A5ABB6" stroke="none" d="M 25 0.5 L 58.64708355049129 0.5 L 58.64708355049129 -0.5 L 25 -0.5 Z M 91.00705364326473 0.5 L 124.65413719375601 0.5 L 124.65413719375601 3.5 L 131.65413719375601 0 L 124.65413719375601 -3.5 L 124.65413719375601 -0.5 L 91.00705364326473 -0.5 Z"/><text text-anchor="middle" pointer-events="none" font-size="8px" fill="#000000" x="74.82706859687801" y="3" font-family="Helvetica Neue, Helvetica, Arial, sans-serif">RATED</text></g></g><g class="layer nodes"><g class="node" aria-label="graph-node6" transform="translate(96.20796240881185,155.46700528784342)"><circle class="b-outline" cx="0" cy="0" r="25" fill="#57C7E3" stroke="#23b3d7" stroke-width="2px"/><text class="caption" text-anchor="middle" pointer-events="none" x="0" y="5" font-size="10px" fill="#2A2C34" font-family="Helvetica Neue, Helvetica, Arial, sans-serif"> 夏天</text></g><g class="node" aria-label="graph-node2" transform="translate(-3.736530037100209,7.048852559901716)"><circle class="b-outline" cx="0" cy="0" r="25" fill="#C990C0" stroke="#b261a5" stroke-width="2px"/><text class="caption" text-anchor="middle" pointer-events="none" x="0" y="5" font-size="10px" fill="#FFFFFF" font-family="Helvetica Neue, Helvetica, Arial, sans-serif"> 战狼 Ⅱ</text></g><g class="node" aria-label="graph-node4" transform="translate(92.49229092877597,30.787249307621508)"><circle class="b-outline" cx="0" cy="0" r="25" fill="#C990C0" stroke="#b261a5" stroke-width="2px"/><text class="caption" text-anchor="middle" pointer-events="none" x="0" y="0" font-size="10px" fill="#FFFFFF" font-family="Helvetica Neue, Helvetica, Arial, sans-serif"> 流浪地球</text><text class="caption" text-anchor="middle" pointer-events="none" x="0" y="10" font-size="10px" fill="#FFFFFF" font-family="Helvetica Neue, Helvetica, Arial, sans-serif"> Ⅱ</text></g><g class="node" aria-label="graph-node7" transform="translate(154.55676114114127,-76.70819059639246)"><circle class="b-outline" cx="0" cy="0" r="25" fill="#57C7E3" stroke="#23b3d7" stroke-width="2px"/><text class="caption" text-anchor="middle" pointer-events="none" x="0" y="5" font-size="10px" fill="#2A2C34" font-family="Helvetica Neue, Helvetica, Arial, sans-serif"> 珊珊</text></g><g class="node" aria-label="graph-node8" transform="translate(66.8964136325512,-123.65696927193977)"><circle class="b-outline" cx="0" cy="0" r="25" fill="#57C7E3" stroke="#23b3d7" stroke-width="2px"/><text class="caption" text-anchor="middle" pointer-events="none" x="0" y="5" font-size="10px" fill="#2A2C34" font-family="Helvetica Neue, Helvetica, Arial, sans-serif"> 大鹏</text></g><g class="node" aria-label="graph-node9" transform="translate(-31.207686885689977,-106.53398616384457)"><circle class="b-outline" cx="0" cy="0" r="25" fill="#57C7E3" stroke="#23b3d7" stroke-width="2px"/><text class="caption" text-anchor="middle" pointer-events="none" x="0" y="5" font-size="10px" fill="#2A2C34" font-family="Helvetica Neue, Helvetica, Arial, sans-serif"> 朵朵</text></g><g class="node" aria-label="graph-node10" transform="translate(-81.90346129038586,93.67514914700816)"><circle class="b-outline" cx="0" cy="0" r="25" fill="#57C7E3" stroke="#23b3d7" stroke-width="2px"/><text class="caption" text-anchor="middle" pointer-events="none" x="0" y="5" font-size="10px" fill="#2A2C34" font-family="Helvetica Neue, Helvetica, Arial, sans-serif"> 乐乐</text></g><g class="node" aria-label="graph-node11" transform="translate(-3.2543397037213397,154.77556094401834)"><circle class="b-outline" cx="0" cy="0" r="25" fill="#57C7E3" stroke="#23b3d7" stroke-width="2px"/><text class="caption" text-anchor="middle" pointer-events="none" x="0" y="5" font-size="10px" fill="#2A2C34" font-family="Helvetica Neue, Helvetica, Arial, sans-serif"> 三月</text></g></g></svg>