<svg id="kity_svg_6" xmlns="http://www.w3.org/2000/svg" xmlns:xlink="http://www.w3.org/1999/xlink" version="1.1" width="666" height="234" style="background: rgb(251, 251, 251); visibility: visible;" viewBox="0 0 666 234"><defs id="kity_defs_7"><linearGradient id="kity_linearGradient_17" x1="0" y1="0" x2="0" y2="1"><stop id="kity_stop_18" offset="0" stop-color="rgb(255, 255, 255)"></stop><stop id="kity_stop_19" offset="1" stop-color="rgb(204, 204, 204)"></stop></linearGradient><marker id="kity_marker_2" orient="auto" refX="6" refY="0" viewBox="-7 -7 14 14" markerWidth="7" markerHeight="7" markerUnits="userSpaceOnUse"><path id="kity_path_3" fill="rgb(115, 161, 191)" stroke="none" d="M6,0A6,6,0,1,1,-6,0A6,6,0,1,1,6,0"></path></marker></defs><g id="kity_g_8"><g id="minder1" text-rendering="optimize-speed"><g id="minder_connect_group1"><path id="kity_path_31" fill="none" stroke="rgb(115, 161, 191)" stroke-width="1" d="M324.5,117.5A95,84,0,0,1,419.5,33.5"></path><path id="kity_path_33" fill="none" stroke="rgb(115, 161, 191)" stroke-width="1" d="M324.5,117.5A95,42,0,0,1,419.5,75.5"></path><path id="kity_path_35" fill="none" stroke="rgb(115, 161, 191)" stroke-width="1" d="M324.5,117.5A95,0,0,0,1,419.5,117.5"></path><path id="kity_path_37" fill="none" stroke="rgb(115, 161, 191)" stroke-width="1" d="M324.5,117.5A95,42,0,0,0,419.5,159.5"></path><path id="kity_path_39" fill="none" stroke="rgb(115, 161, 191)" stroke-width="1" d="M324.5,117.5A95,84,0,0,0,419.5,201.5"></path><path id="kity_path_43" fill="none" stroke="rgb(115, 161, 191)" stroke-width="1" d="M324.5,117.5A95,84,0,0,0,229.5,33.5"></path><path id="kity_path_45" fill="none" stroke="rgb(115, 161, 191)" stroke-width="1" d="M324.5,117.5A95,42,0,0,0,229.5,75.5"></path><path id="kity_path_47" fill="none" stroke="rgb(115, 161, 191)" stroke-width="1" d="M324.5,117.5A95,0,0,0,1,229.5,117.5"></path><path id="kity_path_49" fill="none" stroke="rgb(115, 161, 191)" stroke-width="1" d="M324.5,117.5A95,42,0,0,1,229.5,159.5"></path><path id="kity_path_51" fill="none" stroke="rgb(115, 161, 191)" stroke-width="1" d="M324.5,117.5A95,84,0,0,1,229.5,201.5"></path></g><g id="minder_node1"><path id="kity_path_128" fill="rgba(0, 0, 0, .25)" stroke="none" d="M258.5,100.5h207a22,22,0,0,1,22,22v0a22,22,0,0,1,-22,22h-207a22,22,0,0,1,-22,-22v0a22,22,0,0,1,22,-22z" display="none"></path><path id="node_outline1" fill="rgb(115, 161, 191)" stroke="rgb(115, 161, 191)" d="M250.5,103.5h148a5,5,0,0,1,5,5v18a5,5,0,0,1,-5,5h-148a5,5,0,0,1,-5,-5v-18a5,5,0,0,1,5,-5z" stroke-width="3"></path><g id="node_text1" fill="white"><text id="kity_text_22" text-rendering="inherit" font-size="16" dy=".8em" y="109.5" font-family="微软雅黑,Microsoft YaHei" x="257.5">Java 9 主要新特性</text></g></g><g id="kity_g_12"><path id="kity_path_13" fill="none" stroke="none" d="M257.5,117.5h0v0h0z"></path></g><g id="kity_g_14"><path id="kity_path_15" fill="none" stroke="none" d="M257.5,117.5h0v0h0z"></path><path id="kity_path_16" fill="none" stroke="none"></path></g><g id="minder_node2"><path id="kity_path_118" fill="rgba(0, 0, 0, .25)" stroke="none" d="M440.5,25.5h74a10,10,0,0,1,10,10v6a10,10,0,0,1,-10,10h-74a10,10,0,0,1,-10,-10v-6a10,10,0,0,1,10,-10z" display="none"></path><g id="node_expander1" style="cursor: pointer;" display="none"><path id="kity_path_86" fill="white" stroke="gray" d="M420.5,33.5A6,6,0,1,1,408.5,33.5A6,6,0,1,1,420.5,33.5"></path><path id="kity_path_87" fill="none" stroke="gray"></path></g><path id="node_outline2" fill="rgb(238, 243, 246)" stroke="rgb(115, 161, 191)" d="M424.5,20.5h90a3,3,0,0,1,3,3v20a3,3,0,0,1,-3,3h-90a3,3,0,0,1,-3,-3v-20a3,3,0,0,1,3,-3z" stroke-width="1"></path><g id="node_text2" fill="black"><text id="kity_text_53" text-rendering="inherit" font-family="微软雅黑,Microsoft YaHei" font-size="14" dy=".8em" y="26.5" x="441.5">模块系统</text></g></g><g id="minder_node3"><path id="kity_path_119" fill="rgba(0, 0, 0, .25)" stroke="none" d="M440.5,67.5h54a10,10,0,0,1,10,10v6a10,10,0,0,1,-10,10h-54a10,10,0,0,1,-10,-10v-6a10,10,0,0,1,10,-10z" display="none"></path><g id="node_expander2" style="cursor: pointer;" display="none"><path id="kity_path_89" fill="white" stroke="gray" d="M420.5,75.5A6,6,0,1,1,408.5,75.5A6,6,0,1,1,420.5,75.5"></path><path id="kity_path_90" fill="none" stroke="gray"></path></g><path id="node_outline3" fill="rgb(238, 243, 246)" stroke="rgb(115, 161, 191)" d="M424.5,62.5h72a3,3,0,0,1,3,3v20a3,3,0,0,1,-3,3h-72a3,3,0,0,1,-3,-3v-20a3,3,0,0,1,3,-3z" stroke-width="1"></path><g id="node_text3" fill="black"><text id="kity_text_55" text-rendering="inherit" font-family="微软雅黑,Microsoft YaHei" font-size="14" dy=".8em" y="68.5" x="441.5">JShell</text></g></g><g id="minder_node4"><path id="kity_path_120" fill="rgba(0, 0, 0, .25)" stroke="none" d="M440.5,109.5h222a10,10,0,0,1,10,10v6a10,10,0,0,1,-10,10h-222a10,10,0,0,1,-10,-10v-6a10,10,0,0,1,10,-10z" display="none"></path><g id="node_expander3" style="cursor: pointer;" display="none"><path id="kity_path_92" fill="white" stroke="gray" d="M420.5,117.5A6,6,0,1,1,408.5,117.5A6,6,0,1,1,420.5,117.5"></path><path id="kity_path_93" fill="none" stroke="gray"></path></g><path id="node_outline4" fill="rgb(238, 243, 246)" stroke="rgb(115, 161, 191)" d="M424.5,104.5h219a3,3,0,0,1,3,3v20a3,3,0,0,1,-3,3h-219a3,3,0,0,1,-3,-3v-20a3,3,0,0,1,3,-3z" stroke-width="1"></path><g id="node_text4" fill="black"><text id="kity_text_57" text-rendering="inherit" font-family="微软雅黑,Microsoft YaHei" font-size="14" dy=".8em" y="110.5" x="441.5">try-with-resources 特性增强</text></g></g><g id="minder_node5"><path id="kity_path_121" fill="rgba(0, 0, 0, .25)" stroke="none" d="M440.5,151.5h202a10,10,0,0,1,10,10v6a10,10,0,0,1,-10,10h-202a10,10,0,0,1,-10,-10v-6a10,10,0,0,1,10,-10z" display="none"></path><g id="node_expander4" style="cursor: pointer;" display="none"><path id="kity_path_95" fill="white" stroke="gray" d="M420.5,159.5A6,6,0,1,1,408.5,159.5A6,6,0,1,1,420.5,159.5"></path><path id="kity_path_96" fill="none" stroke="gray"></path></g><path id="node_outline5" fill="rgb(238, 243, 246)" stroke="rgb(115, 161, 191)" d="M424.5,146.5h202a3,3,0,0,1,3,3v20a3,3,0,0,1,-3,3h-202a3,3,0,0,1,-3,-3v-20a3,3,0,0,1,3,-3z" stroke-width="1"></path><g id="node_text5" fill="black"><text id="kity_text_59" text-rendering="inherit" font-family="微软雅黑,Microsoft YaHei" font-size="14" dy=".8em" y="152.5" x="441.5">支持在接口中定义私有方法</text></g></g><g id="minder_node6"><path id="kity_path_122" fill="rgba(0, 0, 0, .25)" stroke="none" d="M440.5,193.5h186a10,10,0,0,1,10,10v6a10,10,0,0,1,-10,10h-186a10,10,0,0,1,-10,-10v-6a10,10,0,0,1,10,-10z" display="none"></path><g id="node_expander5" style="cursor: pointer;" display="none"><path id="kity_path_98" fill="white" stroke="gray" d="M420.5,201.5A6,6,0,1,1,408.5,201.5A6,6,0,1,1,420.5,201.5"></path><path id="kity_path_99" fill="none" stroke="gray"></path></g><path id="node_outline6" fill="rgb(238, 243, 246)" stroke="rgb(115, 161, 191)" d="M424.5,188.5h188a3,3,0,0,1,3,3v20a3,3,0,0,1,-3,3h-188a3,3,0,0,1,-3,-3v-20a3,3,0,0,1,3,-3z" stroke-width="1"></path><g id="node_text6" fill="black"><text id="kity_text_61" text-rendering="inherit" font-family="微软雅黑,Microsoft YaHei" font-size="14" dy=".8em" y="194.5" x="441.5">集合的实用静态工厂方法</text></g></g><g id="minder_node8"><path id="kity_path_123" fill="rgba(0, 0, 0, .25)" stroke="none" d="M101.5,25.5h130a10,10,0,0,1,10,10v6a10,10,0,0,1,-10,10h-130a10,10,0,0,1,-10,-10v-6a10,10,0,0,1,10,-10z" display="none"></path><g id="node_expander7" style="cursor: pointer;" display="none"><path id="kity_path_104" fill="white" stroke="gray" d="M240.5,33.5A6,6,0,1,1,228.5,33.5A6,6,0,1,1,240.5,33.5"></path><path id="kity_path_105" fill="none" stroke="gray"></path></g><path id="node_outline8" fill="rgb(238, 243, 246)" stroke="rgb(115, 161, 191)" d="M85.5,20.5h139a3,3,0,0,1,3,3v20a3,3,0,0,1,-3,3h-139a3,3,0,0,1,-3,-3v-20a3,3,0,0,1,3,-3z" stroke-width="1"></path><g id="node_text8" fill="black"><text id="kity_text_65" text-rendering="inherit" font-family="微软雅黑,Microsoft YaHei" font-size="14" dy=".8em" y="26.5" x="102.5">Stream API 增强</text></g></g><g id="minder_node9"><path id="kity_path_124" fill="rgba(0, 0, 0, .25)" stroke="none" d="M105.5,67.5h126a10,10,0,0,1,10,10v6a10,10,0,0,1,-10,10h-126a10,10,0,0,1,-10,-10v-6a10,10,0,0,1,10,-10z" display="none"></path><g id="node_expander8" style="cursor: pointer;" display="none"><path id="kity_path_107" fill="white" stroke="gray" d="M240.5,75.5A6,6,0,1,1,228.5,75.5A6,6,0,1,1,240.5,75.5"></path><path id="kity_path_108" fill="none" stroke="gray"></path></g><path id="node_outline9" fill="rgb(238, 243, 246)" stroke="rgb(115, 161, 191)" d="M89.5,62.5h135a3,3,0,0,1,3,3v20a3,3,0,0,1,-3,3h-135a3,3,0,0,1,-3,-3v-20a3,3,0,0,1,3,-3z" stroke-width="1"></path><g id="node_text9" fill="black"><text id="kity_text_67" text-rendering="inherit" font-family="微软雅黑,Microsoft YaHei" font-size="14" dy=".8em" y="68.5" x="106.5">Optional 类增强</text></g></g><g id="minder_node10"><path id="kity_path_125" fill="rgba(0, 0, 0, .25)" stroke="none" d="M95.5,109.5h137a10,10,0,0,1,10,10v6a10,10,0,0,1,-10,10h-137a10,10,0,0,1,-10,-10v-6a10,10,0,0,1,10,-10z" display="none"></path><g id="node_expander9" style="cursor: pointer;" display="none"><path id="kity_path_110" fill="white" stroke="gray" d="M240.5,117.5A6,6,0,1,1,228.5,117.5A6,6,0,1,1,240.5,117.5"></path><path id="kity_path_111" fill="none" stroke="gray"></path></g><path id="node_outline10" fill="rgb(238, 243, 246)" stroke="rgb(115, 161, 191)" d="M79.5,104.5h145a3,3,0,0,1,3,3v20a3,3,0,0,1,-3,3h-145a3,3,0,0,1,-3,-3v-20a3,3,0,0,1,3,-3z" stroke-width="1"></path><g id="node_text10" fill="black"><text id="kity_text_69" text-rendering="inherit" font-family="微软雅黑,Microsoft YaHei" font-size="14" dy=".8em" y="110.5" x="96.5">Process API 增强</text></g></g><g id="minder_node11"><path id="kity_path_126" fill="rgba(0, 0, 0, .25)" stroke="none" d="M94.5,151.5h138a10,10,0,0,1,10,10v6a10,10,0,0,1,-10,10h-138a10,10,0,0,1,-10,-10v-6a10,10,0,0,1,10,-10z" display="none"></path><g id="node_expander10" style="cursor: pointer;" display="none"><path id="kity_path_113" fill="white" stroke="gray" d="M240.5,159.5A6,6,0,1,1,228.5,159.5A6,6,0,1,1,240.5,159.5"></path><path id="kity_path_114" fill="none" stroke="gray"></path></g><path id="node_outline11" fill="rgb(238, 243, 246)" stroke="rgb(115, 161, 191)" d="M78.5,146.5h146a3,3,0,0,1,3,3v20a3,3,0,0,1,-3,3h-146a3,3,0,0,1,-3,-3v-20a3,3,0,0,1,3,-3z" stroke-width="1"></path><g id="node_text11" fill="black"><text id="kity_text_71" text-rendering="inherit" font-family="微软雅黑,Microsoft YaHei" font-size="14" dy=".8em" y="152.5" x="95.5">改进的钻石操作符</text></g></g><g id="minder_node12"><path id="kity_path_127" fill="rgba(0, 0, 0, .25)" stroke="none" d="M39.5,193.5h200a10,10,0,0,1,10,10v6a10,10,0,0,1,-10,10h-200a10,10,0,0,1,-10,-10v-6a10,10,0,0,1,10,-10z" display="none"></path><g id="node_expander11" style="cursor: pointer;" display="none"><path id="kity_path_116" fill="white" stroke="gray" d="M240.5,201.5A6,6,0,1,1,228.5,201.5A6,6,0,1,1,240.5,201.5"></path><path id="kity_path_117" fill="none" stroke="gray"></path></g><path id="node_outline12" fill="rgb(238, 243, 246)" stroke="rgb(115, 161, 191)" d="M23.5,188.5h201a3,3,0,0,1,3,3v20a3,3,0,0,1,-3,3h-201a3,3,0,0,1,-3,-3v-20a3,3,0,0,1,3,-3z" stroke-width="1"></path><g id="node_text12" fill="black"><text id="kity_text_73" text-rendering="inherit" font-family="微软雅黑,Microsoft YaHei" font-size="14" dy=".8em" y="194.5" x="40.5">改进的 @Deprecated 注解</text></g></g></g></g></svg>