<svg id="kity_svg_6" xmlns="http://www.w3.org/2000/svg" xmlns:xlink="http://www.w3.org/1999/xlink" version="1.1" width="757" height="276" style="background: rgb(251, 251, 251); visibility: visible;" viewBox="0 0 757 276"><defs id="kity_defs_7"><linearGradient id="kity_linearGradient_17" x1="0" y1="0" x2="0" y2="1"><stop id="kity_stop_18" offset="0" stop-color="rgb(255, 255, 255)"></stop><stop id="kity_stop_19" offset="1" stop-color="rgb(204, 204, 204)"></stop></linearGradient><marker id="kity_marker_2" orient="auto" refX="6" refY="0" viewBox="-7 -7 14 14" markerWidth="7" markerHeight="7" markerUnits="userSpaceOnUse"><path id="kity_path_3" fill="rgb(115, 191, 118)" stroke="none" d="M6,0A6,6,0,1,1,-6,0A6,6,0,1,1,6,0"></path></marker></defs><g id="kity_g_8"><g id="minder1" text-rendering="optimize-speed"><g id="minder_connect_group1"><path id="kity_path_31" fill="none" stroke="rgb(115, 191, 118)" stroke-width="1" d="M355,138.5A98.5,105,0,0,1,453.5,33.5"></path><path id="kity_path_33" fill="none" stroke="rgb(115, 191, 118)" stroke-width="1" d="M355,138.5A98.5,63,0,0,1,453.5,75.5"></path><path id="kity_path_35" fill="none" stroke="rgb(115, 191, 118)" stroke-width="1" d="M355,138.5A98.5,21,0,0,1,453.5,117.5"></path><path id="kity_path_37" fill="none" stroke="rgb(115, 191, 118)" stroke-width="1" d="M355,138.5A98.5,21,0,0,0,453.5,159.5"></path><path id="kity_path_39" fill="none" stroke="rgb(115, 191, 118)" stroke-width="1" d="M355,138.5A98.5,63,0,0,0,453.5,201.5"></path><path id="kity_path_41" fill="none" stroke="rgb(115, 191, 118)" stroke-width="1" d="M355,138.5A98.5,84,0,0,0,256.5,54.5"></path><path id="kity_path_43" fill="none" stroke="rgb(115, 191, 118)" stroke-width="1" d="M355,138.5A98.5,42,0,0,0,256.5,96.5"></path><path id="kity_path_45" fill="none" stroke="rgb(115, 191, 118)" stroke-width="1" d="M355,138.5A98.5,0,0,0,1,256.5,138.5"></path><path id="kity_path_47" fill="none" stroke="rgb(115, 191, 118)" stroke-width="1" d="M355,138.5A98.5,42,0,0,1,256.5,180.5"></path><path id="kity_path_103" fill="none" stroke="rgb(115, 191, 118)" stroke-width="1" d="M355,138.5A98.5,84,0,0,1,256.5,222.5"></path><path id="kity_path_111" fill="none" stroke="rgb(115, 191, 118)" stroke-width="1" d="M355,138.5A98.5,105,0,0,0,453.5,243.5"></path></g><g id="minder_node1"><path id="node_outline1" fill="rgb(115, 191, 118)" stroke="rgb(115, 191, 118)" d="M277.5,124.5h155a5,5,0,0,1,5,5v18a5,5,0,0,1,-5,5h-155a5,5,0,0,1,-5,-5v-18a5,5,0,0,1,5,-5z" stroke-width="3"></path><g id="node_text1" fill="white"><text id="kity_text_22" text-rendering="inherit" font-size="16" dy=".8em" y="130.5" font-family="微软雅黑,Microsoft YaHei" x="284.5">Java 10 主要新特性</text></g></g><g id="kity_g_12"><path id="kity_path_13" fill="none" stroke="none" d="M284.5,138.5h0v0h0z"></path></g><g id="kity_g_14"><path id="kity_path_15" fill="none" stroke="none" d="M284.5,138.5h0v0h0z"></path><path id="kity_path_16" fill="none" stroke="none"></path></g><g id="minder_node2"><g id="node_expander1" style="cursor: pointer;" display="none"><path id="kity_path_76" fill="white" stroke="gray" d="M454.5,33.5A6,6,0,1,1,442.5,33.5A6,6,0,1,1,454.5,33.5"></path><path id="kity_path_77" fill="none" stroke="gray"></path></g><path id="node_outline2" fill="rgb(238, 246, 238)" stroke="rgb(115, 191, 118)" d="M458.5,20.5h146a3,3,0,0,1,3,3v20a3,3,0,0,1,-3,3h-146a3,3,0,0,1,-3,-3v-20a3,3,0,0,1,3,-3z" stroke-width="1"></path><g id="node_text2" fill="black"><text id="kity_text_49" text-rendering="inherit" font-family="微软雅黑,Microsoft YaHei" font-size="14" dy=".8em" y="26.5" x="475.5">局部变量类型推断</text></g></g><g id="minder_node3"><g id="node_expander2" style="cursor: pointer;" display="none"><path id="kity_path_79" fill="white" stroke="gray" d="M454.5,75.5A6,6,0,1,1,442.5,75.5A6,6,0,1,1,454.5,75.5"></path><path id="kity_path_80" fill="none" stroke="gray"></path></g><path id="node_outline3" fill="rgb(238, 246, 238)" stroke="rgb(115, 191, 118)" d="M458.5,62.5h160a3,3,0,0,1,3,3v20a3,3,0,0,1,-3,3h-160a3,3,0,0,1,-3,-3v-20a3,3,0,0,1,3,-3z" stroke-width="1"></path><g id="node_text3" fill="black"><text id="kity_text_51" text-rendering="inherit" font-family="微软雅黑,Microsoft YaHei" font-size="14" dy=".8em" y="68.5" x="475.5">应用程序类数据共享</text></g></g><g id="minder_node4"><g id="node_expander3" style="cursor: pointer;" display="none"><path id="kity_path_82" fill="white" stroke="gray" d="M454.5,117.5A6,6,0,1,1,442.5,117.5A6,6,0,1,1,454.5,117.5"></path><path id="kity_path_83" fill="none" stroke="gray"></path></g><path id="node_outline4" fill="rgb(238, 246, 238)" stroke="rgb(115, 191, 118)" d="M458.5,104.5h219a3,3,0,0,1,3,3v20a3,3,0,0,1,-3,3h-219a3,3,0,0,1,-3,-3v-20a3,3,0,0,1,3,-3z" stroke-width="1"></path><g id="node_text4" fill="black"><text id="kity_text_53" text-rendering="inherit" font-family="微软雅黑,Microsoft YaHei" font-size="14" dy=".8em" y="110.5" x="475.5">JDK 仓库由多个合并为了一个</text></g></g><g id="minder_node5"><g id="node_expander4" style="cursor: pointer;" display="none"><path id="kity_path_85" fill="white" stroke="gray" d="M454.5,159.5A6,6,0,1,1,442.5,159.5A6,6,0,1,1,454.5,159.5"></path><path id="kity_path_86" fill="none" stroke="gray"></path></g><path id="node_outline5" fill="rgb(238, 246, 238)" stroke="rgb(115, 191, 118)" d="M458.5,146.5h188a3,3,0,0,1,3,3v20a3,3,0,0,1,-3,3h-188a3,3,0,0,1,-3,-3v-20a3,3,0,0,1,3,-3z" stroke-width="1"></path><g id="node_text5" fill="black"><text id="kity_text_55" text-rendering="inherit" font-family="微软雅黑,Microsoft YaHei" font-size="14" dy=".8em" y="152.5" x="475.5">更清晰的垃圾收集器接口</text></g></g><g id="minder_node6"><g id="node_expander5" style="cursor: pointer;" display="none"><path id="kity_path_88" fill="white" stroke="gray" d="M454.5,201.5A6,6,0,1,1,442.5,201.5A6,6,0,1,1,454.5,201.5"></path><path id="kity_path_89" fill="none" stroke="gray"></path></g><path id="node_outline6" fill="rgb(238, 246, 238)" stroke="rgb(115, 191, 118)" d="M458.5,188.5h149a3,3,0,0,1,3,3v20a3,3,0,0,1,-3,3h-149a3,3,0,0,1,-3,-3v-20a3,3,0,0,1,3,-3z" stroke-width="1"></path><g id="node_text6" fill="black"><text id="kity_text_57" text-rendering="inherit" font-family="微软雅黑,Microsoft YaHei" font-size="14" dy=".8em" y="194.5" x="475.5">G1 Full GC 并行化</text></g></g><g id="minder_node7"><g id="node_expander6" style="cursor: pointer;" display="none"><path id="kity_path_91" fill="white" stroke="gray" d="M267.5,54.5A6,6,0,1,1,255.5,54.5A6,6,0,1,1,267.5,54.5"></path><path id="kity_path_92" fill="none" stroke="gray"></path></g><path id="node_outline7" fill="rgb(238, 246, 238)" stroke="rgb(115, 191, 118)" d="M133.5,41.5h118a3,3,0,0,1,3,3v20a3,3,0,0,1,-3,3h-118a3,3,0,0,1,-3,-3v-20a3,3,0,0,1,3,-3z" stroke-width="1"></path><g id="node_text7" fill="black"><text id="kity_text_59" text-rendering="inherit" font-family="微软雅黑,Microsoft YaHei" font-size="14" dy=".8em" y="47.5" x="150.5">线程本地握手</text></g></g><g id="minder_node8"><g id="node_expander7" style="cursor: pointer;" display="none"><path id="kity_path_94" fill="white" stroke="gray" d="M267.5,96.5A6,6,0,1,1,255.5,96.5A6,6,0,1,1,267.5,96.5"></path><path id="kity_path_95" fill="none" stroke="gray"></path></g><path id="node_outline8" fill="rgb(238, 246, 238)" stroke="rgb(115, 191, 118)" d="M63.5,83.5h188a3,3,0,0,1,3,3v20a3,3,0,0,1,-3,3h-188a3,3,0,0,1,-3,-3v-20a3,3,0,0,1,3,-3z" stroke-width="1"></path><g id="node_text8" fill="black"><text id="kity_text_61" text-rendering="inherit" font-family="微软雅黑,Microsoft YaHei" font-size="14" dy=".8em" y="89.5" x="80.5">备用内存设备上的堆分配</text></g></g><g id="minder_node9"><g id="node_expander8" style="cursor: pointer;" display="none"><path id="kity_path_97" fill="white" stroke="gray" d="M267.5,138.5A6,6,0,1,1,255.5,138.5A6,6,0,1,1,267.5,138.5"></path><path id="kity_path_98" fill="none" stroke="gray"></path></g><path id="node_outline9" fill="rgb(238, 246, 238)" stroke="rgb(115, 191, 118)" d="M23.5,125.5h228a3,3,0,0,1,3,3v20a3,3,0,0,1,-3,3h-228a3,3,0,0,1,-3,-3v-20a3,3,0,0,1,3,-3z" stroke-width="1"></path><g id="node_text9" fill="black"><text id="kity_text_63" text-rendering="inherit" font-family="微软雅黑,Microsoft YaHei" font-size="14" dy=".8em" y="131.5" x="40.5">基于 Java 的实验型 JIT 编译器</text></g></g><g id="minder_node10"><g id="node_expander9" style="cursor: pointer;" display="none"><path id="kity_path_100" fill="white" stroke="gray" d="M267.5,180.5A6,6,0,1,1,255.5,180.5A6,6,0,1,1,267.5,180.5"></path><path id="kity_path_101" fill="none" stroke="gray"></path></g><path id="node_outline10" fill="rgb(238, 246, 238)" stroke="rgb(115, 191, 118)" d="M175.5,167.5h76a3,3,0,0,1,3,3v20a3,3,0,0,1,-3,3h-76a3,3,0,0,1,-3,-3v-20a3,3,0,0,1,3,-3z" stroke-width="1"></path><g id="node_text10" fill="black"><text id="kity_text_65" text-rendering="inherit" font-family="微软雅黑,Microsoft YaHei" font-size="14" dy=".8em" y="173.5" x="192.5">根证书</text></g></g><g id="minder_node11"><g id="node_expander10" style="cursor: pointer;" display="none"><path id="kity_path_108" fill="white" stroke="gray" d="M267.5,222.5A6,6,0,1,1,255.5,222.5A6,6,0,1,1,267.5,222.5"></path><path id="kity_path_109" fill="none" stroke="gray"></path></g><path id="node_outline11" fill="rgb(238, 246, 238)" stroke="rgb(115, 191, 118)" d="M85.5,209.5h166a3,3,0,0,1,3,3v20a3,3,0,0,1,-3,3h-166a3,3,0,0,1,-3,-3v-20a3,3,0,0,1,3,-3z" stroke-width="1"></path><g id="node_text11" fill="black"><text id="kity_text_105" text-rendering="inherit" font-size="14" dy=".8em" y="215.5" font-family="微软雅黑,Microsoft YaHei" x="102.5">Collections API 增强</text></g></g><g id="minder_node12"><g id="node_expander11" style="cursor: pointer;" display="none"><path id="kity_path_116" fill="white" stroke="gray" d="M454.5,243.5A6,6,0,1,1,442.5,243.5A6,6,0,1,1,454.5,243.5"></path><path id="kity_path_117" fill="none" stroke="gray"></path></g><path id="node_outline12" fill="rgb(238, 246, 238)" stroke="rgb(115, 191, 118)" d="M458.5,230.5h276a3,3,0,0,1,3,3v20a3,3,0,0,1,-3,3h-276a3,3,0,0,1,-3,-3v-20a3,3,0,0,1,3,-3z" stroke-width="1"></path><g id="node_text12" fill="black"><text id="kity_text_113" text-rendering="inherit" font-size="14" dy=".8em" y="236.5" font-family="微软雅黑,Microsoft YaHei" x="475.5">Optional 类添加了 orElseThrow() 方法</text></g></g></g></g></svg>