<svg id="kity_svg_6" xmlns="http://www.w3.org/2000/svg" xmlns:xlink="http://www.w3.org/1999/xlink" version="1.1" width="658" height="108" style="background: rgb(251, 251, 251); visibility: visible;" viewBox="0 0 658 108"><defs id="kity_defs_7"><linearGradient id="kity_linearGradient_17" x1="0" y1="0" x2="0" y2="1"><stop id="kity_stop_18" offset="0" stop-color="rgb(255, 255, 255)"></stop><stop id="kity_stop_19" offset="1" stop-color="rgb(204, 204, 204)"></stop></linearGradient><marker id="kity_marker_2" orient="auto" refX="6" refY="0" viewBox="-7 -7 14 14" markerWidth="7" markerHeight="7" markerUnits="userSpaceOnUse"><path id="kity_path_3" fill="rgb(115, 161, 191)" stroke="none" d="M6,0A6,6,0,1,1,-6,0A6,6,0,1,1,6,0"></path></marker></defs><g id="kity_g_8"><g id="minder1" text-rendering="optimize-speed"><g id="minder_connect_group1"><path id="kity_path_31" fill="none" stroke="rgb(115, 161, 191)" stroke-width="1" d="M400,54.5A98.5,21,0,0,1,498.5,33.5"></path><path id="kity_path_33" fill="none" stroke="rgb(115, 161, 191)" stroke-width="1" d="M400,54.5A98.5,21,0,0,0,498.5,75.5"></path><path id="kity_path_43" fill="none" stroke="rgb(115, 161, 191)" stroke-width="1" d="M400,54.5A98.5,21,0,0,0,301.5,33.5"></path><path id="kity_path_45" fill="none" stroke="rgb(115, 161, 191)" stroke-width="1" d="M400,54.5A98.5,21,0,0,1,301.5,75.5"></path></g><g id="minder_node1"><path id="kity_path_129" fill="rgba(0, 0, 0, .25)" stroke="none" d="M328.5,42.5h221a5,5,0,0,1,5,5v24a5,5,0,0,1,-5,5h-221a5,5,0,0,1,-5,-5v-24a5,5,0,0,1,5,-5z" display="none"></path><path id="node_outline1" fill="rgb(115, 161, 191)" stroke="rgb(115, 161, 191)" d="M322.5,40.5h155a5,5,0,0,1,5,5v18a5,5,0,0,1,-5,5h-155a5,5,0,0,1,-5,-5v-18a5,5,0,0,1,5,-5z" stroke-width="3"></path><g id="node_text1" fill="white"><text id="kity_text_22" text-rendering="inherit" font-size="16" dy=".8em" y="46.5" font-family="微软雅黑,Microsoft YaHei" x="329.5">Java 13 主要新特性</text></g></g><g id="kity_g_12"><path id="kity_path_13" fill="none" stroke="none" d="M329.5,54.5h0v0h0z"></path></g><g id="kity_g_14"><path id="kity_path_15" fill="none" stroke="none" d="M329.5,54.5h0v0h0z"></path><path id="kity_path_16" fill="none" stroke="none"></path></g><g id="minder_node2"><path id="kity_path_118" fill="rgba(0, 0, 0, .25)" stroke="none" d="M519.5,26.5h177a5,5,0,0,1,5,5v14a5,5,0,0,1,-5,5h-177a5,5,0,0,1,-5,-5v-14a5,5,0,0,1,5,-5z" display="none"></path><g id="node_expander1" style="cursor: pointer;" display="none"><path id="kity_path_86" fill="white" stroke="gray" d="M499.5,33.5A6,6,0,1,1,487.5,33.5A6,6,0,1,1,499.5,33.5"></path><path id="kity_path_87" fill="none" stroke="gray"></path></g><path id="node_outline2" fill="rgb(238, 243, 246)" stroke="rgb(115, 161, 191)" d="M503.5,20.5h132a3,3,0,0,1,3,3v20a3,3,0,0,1,-3,3h-132a3,3,0,0,1,-3,-3v-20a3,3,0,0,1,3,-3z" stroke-width="1"></path><g id="node_text2" fill="black"><text id="kity_text_53" text-rendering="inherit" font-family="微软雅黑,Microsoft YaHei" font-size="14" dy=".8em" y="26.5" x="520.5">文本块（预览）</text></g></g><g id="minder_node3"><path id="kity_path_119" fill="rgba(0, 0, 0, .25)" stroke="none" d="M519.5,68.5h373a5,5,0,0,1,5,5v14a5,5,0,0,1,-5,5h-373a5,5,0,0,1,-5,-5v-14a5,5,0,0,1,5,-5z" display="none"></path><g id="node_expander2" style="cursor: pointer;" display="none"><path id="kity_path_89" fill="white" stroke="gray" d="M499.5,75.5A6,6,0,1,1,487.5,75.5A6,6,0,1,1,499.5,75.5"></path><path id="kity_path_90" fill="none" stroke="gray"></path></g><path id="node_outline3" fill="rgb(238, 243, 246)" stroke="rgb(115, 161, 191)" d="M503.5,62.5h128a3,3,0,0,1,3,3v20a3,3,0,0,1,-3,3h-128a3,3,0,0,1,-3,-3v-20a3,3,0,0,1,3,-3z" stroke-width="1"></path><g id="node_text3" fill="black"><text id="kity_text_55" text-rendering="inherit" font-family="微软雅黑,Microsoft YaHei" font-size="14" dy=".8em" y="68.5" x="520.5">动态 CDS 存档</text></g></g><g id="minder_node8"><path id="kity_path_124" fill="rgba(0, 0, 0, .25)" stroke="none" d="M39.5,26.5h152a5,5,0,0,1,5,5v14a5,5,0,0,1,-5,5h-152a5,5,0,0,1,-5,-5v-14a5,5,0,0,1,5,-5z" display="none"></path><g id="node_expander7" style="cursor: pointer;" display="none"><path id="kity_path_104" fill="white" stroke="gray" d="M312.5,33.5A6,6,0,1,1,300.5,33.5A6,6,0,1,1,312.5,33.5"></path><path id="kity_path_105" fill="none" stroke="gray"></path></g><path id="node_outline8" fill="rgb(238, 243, 246)" stroke="rgb(115, 161, 191)" d="M23.5,20.5h273a3,3,0,0,1,3,3v20a3,3,0,0,1,-3,3h-273a3,3,0,0,1,-3,-3v-20a3,3,0,0,1,3,-3z" stroke-width="1"></path><g id="node_text8" fill="black"><text id="kity_text_65" text-rendering="inherit" font-family="微软雅黑,Microsoft YaHei" font-size="14" dy=".8em" y="26.5" x="40.5">ZGC：及时归还未使用的内存（试验）</text></g></g><g id="minder_node9"><path id="kity_path_125" fill="rgba(0, 0, 0, .25)" stroke="none" d="M118.5,68.5h170a5,5,0,0,1,5,5v14a5,5,0,0,1,-5,5h-170a5,5,0,0,1,-5,-5v-14a5,5,0,0,1,5,-5z" display="none"></path><g id="node_expander8" style="cursor: pointer;" display="none"><path id="kity_path_107" fill="white" stroke="gray" d="M312.5,75.5A6,6,0,1,1,300.5,75.5A6,6,0,1,1,312.5,75.5"></path><path id="kity_path_108" fill="none" stroke="gray"></path></g><path id="node_outline9" fill="rgb(238, 243, 246)" stroke="rgb(115, 161, 191)" d="M102.5,62.5h194a3,3,0,0,1,3,3v20a3,3,0,0,1,-3,3h-194a3,3,0,0,1,-3,-3v-20a3,3,0,0,1,3,-3z" stroke-width="1"></path><g id="node_text9" fill="black"><text id="kity_text_67" text-rendering="inherit" font-family="微软雅黑,Microsoft YaHei" font-size="14" dy=".8em" y="68.5" x="119.5">重新实现遗留 Socket API</text></g></g></g></g></svg>