<svg id="kity_svg_6" xmlns="http://www.w3.org/2000/svg" xmlns:xlink="http://www.w3.org/1999/xlink" version="1.1" width="851" height="276" style="background: rgb(251, 251, 251); visibility: visible;" viewBox="0 0 851 276"><defs id="kity_defs_7"><linearGradient id="kity_linearGradient_17" x1="0" y1="0" x2="0" y2="1"><stop id="kity_stop_18" offset="0" stop-color="rgb(255, 255, 255)"></stop><stop id="kity_stop_19" offset="1" stop-color="rgb(204, 204, 204)"></stop></linearGradient><marker id="kity_marker_2" orient="auto" refX="6" refY="0" viewBox="-7 -7 14 14" markerWidth="7" markerHeight="7" markerUnits="userSpaceOnUse"><path id="kity_path_3" fill="rgb(123, 115, 191)" stroke="none" d="M6,0A6,6,0,1,1,-6,0A6,6,0,1,1,6,0"></path></marker></defs><g id="kity_g_8"><g id="minder1" text-rendering="optimize-speed"><g id="minder_connect_group1"><path id="kity_path_31" fill="none" stroke="rgb(123, 115, 191)" stroke-width="1" d="M373,138.5A98.5,105,0,0,1,471.5,33.5"></path><path id="kity_path_33" fill="none" stroke="rgb(123, 115, 191)" stroke-width="1" d="M373,138.5A98.5,63,0,0,1,471.5,75.5"></path><path id="kity_path_35" fill="none" stroke="rgb(123, 115, 191)" stroke-width="1" d="M373,138.5A98.5,21,0,0,1,471.5,117.5"></path><path id="kity_path_37" fill="none" stroke="rgb(123, 115, 191)" stroke-width="1" d="M373,138.5A98.5,21,0,0,0,471.5,159.5"></path><path id="kity_path_39" fill="none" stroke="rgb(123, 115, 191)" stroke-width="1" d="M373,138.5A98.5,63,0,0,0,471.5,201.5"></path><path id="kity_path_41" fill="none" stroke="rgb(123, 115, 191)" stroke-width="1" d="M373,138.5A98.5,105,0,0,0,471.5,243.5"></path><path id="kity_path_43" fill="none" stroke="rgb(123, 115, 191)" stroke-width="1" d="M373,138.5A98.5,84,0,0,0,274.5,54.5"></path><path id="kity_path_45" fill="none" stroke="rgb(123, 115, 191)" stroke-width="1" d="M373,138.5A98.5,42,0,0,0,274.5,96.5"></path><path id="kity_path_47" fill="none" stroke="rgb(123, 115, 191)" stroke-width="1" d="M373,138.5A98.5,0,0,0,1,274.5,138.5"></path><path id="kity_path_49" fill="none" stroke="rgb(123, 115, 191)" stroke-width="1" d="M373,138.5A98.5,42,0,0,1,274.5,180.5"></path><path id="kity_path_51" fill="none" stroke="rgb(123, 115, 191)" stroke-width="1" d="M373,138.5A98.5,84,0,0,1,274.5,222.5"></path></g><g id="minder_node1"><path id="node_outline1" fill="rgb(123, 115, 191)" stroke="rgb(123, 115, 191)" d="M295.5,124.5h155a5,5,0,0,1,5,5v18a5,5,0,0,1,-5,5h-155a5,5,0,0,1,-5,-5v-18a5,5,0,0,1,5,-5z" stroke-width="3"></path><g id="node_text1" fill="white"><text id="kity_text_22" text-rendering="inherit" font-size="16" dy=".8em" y="130.5" font-family="微软雅黑,Microsoft YaHei" x="302.5">Java 12 主要新特性</text></g></g><g id="kity_g_12"><path id="kity_path_13" fill="none" stroke="none" d="M302.5,138.5h0v0h0z"></path></g><g id="kity_g_14"><path id="kity_path_15" fill="none" stroke="none" d="M302.5,138.5h0v0h0z"></path><path id="kity_path_16" fill="none" stroke="none"></path></g><g id="minder_node2"><g id="node_expander1" style="cursor: pointer;" display="none"><path id="kity_path_86" fill="white" stroke="gray" d="M472.5,33.5A6,6,0,1,1,460.5,33.5A6,6,0,1,1,472.5,33.5"></path><path id="kity_path_87" fill="none" stroke="gray"></path></g><path id="node_outline2" fill="rgb(239, 238, 246)" stroke="rgb(123, 115, 191)" d="M476.5,20.5h180a3,3,0,0,1,3,3v20a3,3,0,0,1,-3,3h-180a3,3,0,0,1,-3,-3v-20a3,3,0,0,1,3,-3z" stroke-width="1"></path><g id="node_text2" fill="black"><text id="kity_text_53" text-rendering="inherit" font-family="微软雅黑,Microsoft YaHei" font-size="14" dy=".8em" y="26.5" x="493.5">Switch 表达式（预览）</text></g></g><g id="minder_node3"><g id="node_expander2" style="cursor: pointer;" display="none"><path id="kity_path_89" fill="white" stroke="gray" d="M472.5,75.5A6,6,0,1,1,460.5,75.5A6,6,0,1,1,472.5,75.5"></path><path id="kity_path_90" fill="none" stroke="gray"></path></g><path id="node_outline3" fill="rgb(239, 238, 246)" stroke="rgb(123, 115, 191)" d="M476.5,62.5h352a3,3,0,0,1,3,3v20a3,3,0,0,1,-3,3h-352a3,3,0,0,1,-3,-3v-20a3,3,0,0,1,3,-3z" stroke-width="1"></path><g id="node_text3" fill="black"><text id="kity_text_55" text-rendering="inherit" font-family="微软雅黑,Microsoft YaHei" font-size="14" dy=".8em" y="68.5" x="493.5">Shenandoah：一个可以缩短暂停时间的垃圾收集器</text></g></g><g id="minder_node4"><g id="node_expander3" style="cursor: pointer;" display="none"><path id="kity_path_92" fill="white" stroke="gray" d="M472.5,117.5A6,6,0,1,1,460.5,117.5A6,6,0,1,1,472.5,117.5"></path><path id="kity_path_93" fill="none" stroke="gray"></path></g><path id="node_outline4" fill="rgb(239, 238, 246)" stroke="rgb(123, 115, 191)" d="M476.5,104.5h121a3,3,0,0,1,3,3v20a3,3,0,0,1,-3,3h-121a3,3,0,0,1,-3,-3v-20a3,3,0,0,1,3,-3z" stroke-width="1"></path><g id="node_text4" fill="black"><text id="kity_text_57" text-rendering="inherit" font-family="微软雅黑,Microsoft YaHei" font-size="14" dy=".8em" y="110.5" x="493.5">JVM 常量 API</text></g></g><g id="minder_node5"><g id="node_expander4" style="cursor: pointer;" display="none"><path id="kity_path_95" fill="white" stroke="gray" d="M472.5,159.5A6,6,0,1,1,460.5,159.5A6,6,0,1,1,472.5,159.5"></path><path id="kity_path_96" fill="none" stroke="gray"></path></g><path id="node_outline5" fill="rgb(239, 238, 246)" stroke="rgb(123, 115, 191)" d="M476.5,146.5h131a3,3,0,0,1,3,3v20a3,3,0,0,1,-3,3h-131a3,3,0,0,1,-3,-3v-20a3,3,0,0,1,3,-3z" stroke-width="1"></path><g id="node_text5" fill="black"><text id="kity_text_59" text-rendering="inherit" font-family="微软雅黑,Microsoft YaHei" font-size="14" dy=".8em" y="152.5" x="493.5">String API 增强</text></g></g><g id="minder_node6"><g id="node_expander5" style="cursor: pointer;" display="none"><path id="kity_path_98" fill="white" stroke="gray" d="M472.5,201.5A6,6,0,1,1,460.5,201.5A6,6,0,1,1,472.5,201.5"></path><path id="kity_path_99" fill="none" stroke="gray"></path></g><path id="node_outline6" fill="rgb(239, 238, 246)" stroke="rgb(123, 115, 191)" d="M476.5,188.5h123a3,3,0,0,1,3,3v20a3,3,0,0,1,-3,3h-123a3,3,0,0,1,-3,-3v-20a3,3,0,0,1,3,-3z" stroke-width="1"></path><g id="node_text6" fill="black"><text id="kity_text_61" text-rendering="inherit" font-family="微软雅黑,Microsoft YaHei" font-size="14" dy=".8em" y="194.5" x="493.5">Files API 增强</text></g></g><g id="minder_node7"><g id="node_expander6" style="cursor: pointer;" display="none"><path id="kity_path_101" fill="white" stroke="gray" d="M472.5,243.5A6,6,0,1,1,460.5,243.5A6,6,0,1,1,472.5,243.5"></path><path id="kity_path_102" fill="none" stroke="gray"></path></g><path id="node_outline7" fill="rgb(239, 238, 246)" stroke="rgb(123, 115, 191)" d="M476.5,230.5h190a3,3,0,0,1,3,3v20a3,3,0,0,1,-3,3h-190a3,3,0,0,1,-3,-3v-20a3,3,0,0,1,3,-3z" stroke-width="1"></path><g id="node_text7" fill="black"><text id="kity_text_63" text-rendering="inherit" font-family="微软雅黑,Microsoft YaHei" font-size="14" dy=".8em" y="236.5" x="493.5">NumberFormat API 增强</text></g></g><g id="minder_node8"><g id="node_expander7" style="cursor: pointer;" display="none"><path id="kity_path_104" fill="white" stroke="gray" d="M285.5,54.5A6,6,0,1,1,273.5,54.5A6,6,0,1,1,285.5,54.5"></path><path id="kity_path_105" fill="none" stroke="gray"></path></g><path id="node_outline8" fill="rgb(239, 238, 246)" stroke="rgb(123, 115, 191)" d="M110.5,41.5h159a3,3,0,0,1,3,3v20a3,3,0,0,1,-3,3h-159a3,3,0,0,1,-3,-3v-20a3,3,0,0,1,3,-3z" stroke-width="1"></path><g id="node_text8" fill="black"><text id="kity_text_65" text-rendering="inherit" font-family="微软雅黑,Microsoft YaHei" font-size="14" dy=".8em" y="47.5" x="127.5">Collectors API 增强</text></g></g><g id="minder_node9"><g id="node_expander8" style="cursor: pointer;" display="none"><path id="kity_path_107" fill="white" stroke="gray" d="M285.5,96.5A6,6,0,1,1,273.5,96.5A6,6,0,1,1,285.5,96.5"></path><path id="kity_path_108" fill="none" stroke="gray"></path></g><path id="node_outline9" fill="rgb(239, 238, 246)" stroke="rgb(123, 115, 191)" d="M95.5,83.5h174a3,3,0,0,1,3,3v20a3,3,0,0,1,-3,3h-174a3,3,0,0,1,-3,-3v-20a3,3,0,0,1,3,-3z" stroke-width="1"></path><g id="node_text9" fill="black"><text id="kity_text_67" text-rendering="inherit" font-family="微软雅黑,Microsoft YaHei" font-size="14" dy=".8em" y="89.5" x="112.5">默认的类数据共享存档</text></g></g><g id="minder_node10"><g id="node_expander9" style="cursor: pointer;" display="none"><path id="kity_path_110" fill="white" stroke="gray" d="M285.5,138.5A6,6,0,1,1,273.5,138.5A6,6,0,1,1,285.5,138.5"></path><path id="kity_path_111" fill="none" stroke="gray"></path></g><path id="node_outline10" fill="rgb(239, 238, 246)" stroke="rgb(123, 115, 191)" d="M74.5,125.5h195a3,3,0,0,1,3,3v20a3,3,0,0,1,-3,3h-195a3,3,0,0,1,-3,-3v-20a3,3,0,0,1,3,-3z" stroke-width="1"></path><g id="node_text10" fill="black"><text id="kity_text_69" text-rendering="inherit" font-family="微软雅黑,Microsoft YaHei" font-size="14" dy=".8em" y="131.5" x="91.5">G1 的可中断混合垃圾收集</text></g></g><g id="minder_node11"><g id="node_expander10" style="cursor: pointer;" display="none"><path id="kity_path_113" fill="white" stroke="gray" d="M285.5,180.5A6,6,0,1,1,273.5,180.5A6,6,0,1,1,285.5,180.5"></path><path id="kity_path_114" fill="none" stroke="gray"></path></g><path id="node_outline11" fill="rgb(239, 238, 246)" stroke="rgb(123, 115, 191)" d="M23.5,167.5h246a3,3,0,0,1,3,3v20a3,3,0,0,1,-3,3h-246a3,3,0,0,1,-3,-3v-20a3,3,0,0,1,3,-3z" stroke-width="1"></path><g id="node_text11" fill="black"><text id="kity_text_71" text-rendering="inherit" font-family="微软雅黑,Microsoft YaHei" font-size="14" dy=".8em" y="173.5" x="40.5">G1：及时归还未使用的已提交内存</text></g></g><g id="minder_node12"><g id="node_expander11" style="cursor: pointer;" display="none"><path id="kity_path_116" fill="white" stroke="gray" d="M285.5,222.5A6,6,0,1,1,273.5,222.5A6,6,0,1,1,285.5,222.5"></path><path id="kity_path_117" fill="none" stroke="gray"></path></g><path id="node_outline12" fill="rgb(239, 238, 246)" stroke="rgb(123, 115, 191)" d="M137.5,209.5h132a3,3,0,0,1,3,3v20a3,3,0,0,1,-3,3h-132a3,3,0,0,1,-3,-3v-20a3,3,0,0,1,3,-3z" stroke-width="1"></path><g id="node_text12" fill="black"><text id="kity_text_73" text-rendering="inherit" font-family="微软雅黑,Microsoft YaHei" font-size="14" dy=".8em" y="215.5" x="154.5">微基准测试套件</text></g></g></g></g></svg>