<svg id="kity_svg_6" xmlns="http://www.w3.org/2000/svg" xmlns:xlink="http://www.w3.org/1999/xlink" version="1.1" width="776" height="318" style="background: rgb(251, 251, 251); visibility: visible;" viewBox="0 0 776 318"><defs id="kity_defs_7"><linearGradient id="kity_linearGradient_17" x1="0" y1="0" x2="0" y2="1"><stop id="kity_stop_18" offset="0" stop-color="rgb(255, 255, 255)"></stop><stop id="kity_stop_19" offset="1" stop-color="rgb(204, 204, 204)"></stop></linearGradient><marker id="kity_marker_2" orient="auto" refX="6" refY="0" viewBox="-7 -7 14 14" markerWidth="7" markerHeight="7" markerUnits="userSpaceOnUse"><path id="kity_path_3" fill="rgb(191, 115, 148)" stroke="none" d="M6,0A6,6,0,1,1,-6,0A6,6,0,1,1,6,0"></path></marker></defs><g id="kity_g_8"><g id="minder1" text-rendering="optimize-speed"><g id="minder_connect_group1"><path id="kity_path_31" fill="none" stroke="rgb(191, 115, 148)" stroke-width="1" d="M398,159.5A96.5,126,0,0,1,494.5,33.5"></path><path id="kity_path_33" fill="none" stroke="rgb(191, 115, 148)" stroke-width="1" d="M398,159.5A96.5,84,0,0,1,494.5,75.5"></path><path id="kity_path_35" fill="none" stroke="rgb(191, 115, 148)" stroke-width="1" d="M398,159.5A96.5,42,0,0,1,494.5,117.5"></path><path id="kity_path_37" fill="none" stroke="rgb(191, 115, 148)" stroke-width="1" d="M398,159.5A96.5,0,0,0,1,494.5,159.5"></path><path id="kity_path_39" fill="none" stroke="rgb(191, 115, 148)" stroke-width="1" d="M398,159.5A96.5,42,0,0,0,494.5,201.5"></path><path id="kity_path_41" fill="none" stroke="rgb(191, 115, 148)" stroke-width="1" d="M398,159.5A96.5,84,0,0,0,494.5,243.5"></path><path id="kity_path_43" fill="none" stroke="rgb(191, 115, 148)" stroke-width="1" d="M398,159.5A96.5,126,0,0,0,494.5,285.5"></path><path id="kity_path_45" fill="none" stroke="rgb(191, 115, 148)" stroke-width="1" d="M398,159.5A96.5,126,0,0,0,301.5,33.5"></path><path id="kity_path_47" fill="none" stroke="rgb(191, 115, 148)" stroke-width="1" d="M398,159.5A96.5,84,0,0,0,301.5,75.5"></path><path id="kity_path_49" fill="none" stroke="rgb(191, 115, 148)" stroke-width="1" d="M398,159.5A96.5,42,0,0,0,301.5,117.5"></path><path id="kity_path_51" fill="none" stroke="rgb(191, 115, 148)" stroke-width="1" d="M398,159.5A96.5,0,0,0,1,301.5,159.5"></path><path id="kity_path_119" fill="none" stroke="rgb(191, 115, 148)" stroke-width="1" d="M398,159.5A96.5,42,0,0,1,301.5,201.5"></path><path id="kity_path_127" fill="none" stroke="rgb(191, 115, 148)" stroke-width="1" d="M398,159.5A96.5,84,0,0,1,301.5,243.5"></path><path id="kity_path_143" fill="none" stroke="rgb(191, 115, 148)" stroke-width="1" d="M398,159.5A96.5,126,0,0,1,301.5,285.5"></path></g><g id="minder_node1"><path id="node_outline1" fill="rgb(191, 115, 148)" stroke="rgb(191, 115, 148)" d="M322.5,145.5h151a5,5,0,0,1,5,5v18a5,5,0,0,1,-5,5h-151a5,5,0,0,1,-5,-5v-18a5,5,0,0,1,5,-5z" stroke-width="3"></path><g id="node_text1" fill="white"><text id="kity_text_22" text-rendering="inherit" font-size="16" dy=".8em" y="151.5" font-family="微软雅黑,Microsoft YaHei" x="329.5">Java 11 主要新特性</text></g></g><g id="kity_g_12"><path id="kity_path_13" fill="none" stroke="none" d="M329.5,159.5h0v0h0z"></path></g><g id="kity_g_14"><path id="kity_path_15" fill="none" stroke="none" d="M329.5,159.5h0v0h0z"></path><path id="kity_path_16" fill="none" stroke="none"></path></g><g id="minder_node2"><g id="node_expander1" style="cursor: pointer;" display="none"><path id="kity_path_86" fill="white" stroke="gray" d="M495.5,33.5A6,6,0,1,1,483.5,33.5A6,6,0,1,1,495.5,33.5"></path><path id="kity_path_87" fill="none" stroke="gray"></path></g><path id="node_outline2" fill="rgb(246, 238, 242)" stroke="rgb(191, 115, 148)" d="M499.5,20.5h190a3,3,0,0,1,3,3v20a3,3,0,0,1,-3,3h-190a3,3,0,0,1,-3,-3v-20a3,3,0,0,1,3,-3z" stroke-width="1"></path><g id="node_text2" fill="black"><text id="kity_text_53" text-rendering="inherit" font-family="微软雅黑,Microsoft YaHei" font-size="14" dy=".8em" y="26.5" x="516.5">全新的 HTTP 客户端 API</text></g></g><g id="minder_node3"><g id="node_expander2" style="cursor: pointer;" display="none"><path id="kity_path_89" fill="white" stroke="gray" d="M495.5,75.5A6,6,0,1,1,483.5,75.5A6,6,0,1,1,495.5,75.5"></path><path id="kity_path_90" fill="none" stroke="gray"></path></g><path id="node_outline3" fill="rgb(246, 238, 242)" stroke="rgb(191, 115, 148)" d="M499.5,62.5h131a3,3,0,0,1,3,3v20a3,3,0,0,1,-3,3h-131a3,3,0,0,1,-3,-3v-20a3,3,0,0,1,3,-3z" stroke-width="1"></path><g id="node_text3" fill="black"><text id="kity_text_55" text-rendering="inherit" font-family="微软雅黑,Microsoft YaHei" font-size="14" dy=".8em" y="68.5" x="516.5">String API 增强</text></g></g><g id="minder_node4"><g id="node_expander3" style="cursor: pointer;" display="none"><path id="kity_path_92" fill="white" stroke="gray" d="M495.5,117.5A6,6,0,1,1,483.5,117.5A6,6,0,1,1,495.5,117.5"></path><path id="kity_path_93" fill="none" stroke="gray"></path></g><path id="node_outline4" fill="rgb(246, 238, 242)" stroke="rgb(191, 115, 148)" d="M499.5,104.5h123a3,3,0,0,1,3,3v20a3,3,0,0,1,-3,3h-123a3,3,0,0,1,-3,-3v-20a3,3,0,0,1,3,-3z" stroke-width="1"></path><g id="node_text4" fill="black"><text id="kity_text_57" text-rendering="inherit" font-family="微软雅黑,Microsoft YaHei" font-size="14" dy=".8em" y="110.5" x="516.5">Files API 增强</text></g></g><g id="minder_node5"><g id="node_expander4" style="cursor: pointer;" display="none"><path id="kity_path_95" fill="white" stroke="gray" d="M495.5,159.5A6,6,0,1,1,483.5,159.5A6,6,0,1,1,495.5,159.5"></path><path id="kity_path_96" fill="none" stroke="gray"></path></g><path id="node_outline5" fill="rgb(246, 238, 242)" stroke="rgb(191, 115, 148)" d="M499.5,146.5h217a3,3,0,0,1,3,3v20a3,3,0,0,1,-3,3h-217a3,3,0,0,1,-3,-3v-20a3,3,0,0,1,3,-3z" stroke-width="1"></path><g id="node_text5" fill="black"><text id="kity_text_59" text-rendering="inherit" font-family="微软雅黑,Microsoft YaHei" font-size="14" dy=".8em" y="152.5" x="516.5">Lambda 参数的局部变量语法</text></g></g><g id="minder_node6"><g id="node_expander5" style="cursor: pointer;" display="none"><path id="kity_path_98" fill="white" stroke="gray" d="M495.5,201.5A6,6,0,1,1,483.5,201.5A6,6,0,1,1,495.5,201.5"></path><path id="kity_path_99" fill="none" stroke="gray"></path></g><path id="node_outline6" fill="rgb(246, 238, 242)" stroke="rgb(191, 115, 148)" d="M499.5,188.5h254a3,3,0,0,1,3,3v20a3,3,0,0,1,-3,3h-254a3,3,0,0,1,-3,-3v-20a3,3,0,0,1,3,-3z" stroke-width="1"></path><g id="node_text6" fill="black"><text id="kity_text_61" text-rendering="inherit" font-family="微软雅黑,Microsoft YaHei" font-size="14" dy=".8em" y="194.5" x="516.5">Collection 新增 toArray() 重载方法</text></g></g><g id="minder_node7"><g id="node_expander6" style="cursor: pointer;" display="none"><path id="kity_path_101" fill="white" stroke="gray" d="M495.5,243.5A6,6,0,1,1,483.5,243.5A6,6,0,1,1,495.5,243.5"></path><path id="kity_path_102" fill="none" stroke="gray"></path></g><path id="node_outline7" fill="rgb(246, 238, 242)" stroke="rgb(191, 115, 148)" d="M499.5,230.5h135a3,3,0,0,1,3,3v20a3,3,0,0,1,-3,3h-135a3,3,0,0,1,-3,-3v-20a3,3,0,0,1,3,-3z" stroke-width="1"></path><g id="node_text7" fill="black"><text id="kity_text_63" text-rendering="inherit" font-family="微软雅黑,Microsoft YaHei" font-size="14" dy=".8em" y="236.5" x="516.5">Optional 类增强</text></g></g><g id="minder_node8"><g id="node_expander7" style="cursor: pointer;" display="none"><path id="kity_path_104" fill="white" stroke="gray" d="M495.5,285.5A6,6,0,1,1,483.5,285.5A6,6,0,1,1,495.5,285.5"></path><path id="kity_path_105" fill="none" stroke="gray"></path></g><path id="node_outline8" fill="rgb(246, 238, 242)" stroke="rgb(191, 115, 148)" d="M499.5,272.5h160a3,3,0,0,1,3,3v20a3,3,0,0,1,-3,3h-160a3,3,0,0,1,-3,-3v-20a3,3,0,0,1,3,-3z" stroke-width="1"></path><g id="node_text8" fill="black"><text id="kity_text_65" text-rendering="inherit" font-family="微软雅黑,Microsoft YaHei" font-size="14" dy=".8em" y="278.5" x="516.5">基于嵌套的访问控制</text></g></g><g id="minder_node9"><g id="node_expander8" style="cursor: pointer;" display="none"><path id="kity_path_107" fill="white" stroke="gray" d="M312.5,33.5A6,6,0,1,1,300.5,33.5A6,6,0,1,1,312.5,33.5"></path><path id="kity_path_108" fill="none" stroke="gray"></path></g><path id="node_outline9" fill="rgb(246, 238, 242)" stroke="rgb(191, 115, 148)" d="M61.5,20.5h235a3,3,0,0,1,3,3v20a3,3,0,0,1,-3,3h-235a3,3,0,0,1,-3,-3v-20a3,3,0,0,1,3,-3z" stroke-width="1"></path><g id="node_text9" fill="black"><text id="kity_text_67" text-rendering="inherit" font-family="微软雅黑,Microsoft YaHei" font-size="14" dy=".8em" y="26.5" x="78.5">Epsilon：一个无操作垃圾收集器</text></g></g><g id="minder_node10"><g id="node_expander9" style="cursor: pointer;" display="none"><path id="kity_path_110" fill="white" stroke="gray" d="M312.5,75.5A6,6,0,1,1,300.5,75.5A6,6,0,1,1,312.5,75.5"></path><path id="kity_path_111" fill="none" stroke="gray"></path></g><path id="node_outline10" fill="rgb(246, 238, 242)" stroke="rgb(191, 115, 148)" d="M23.5,62.5h273a3,3,0,0,1,3,3v20a3,3,0,0,1,-3,3h-273a3,3,0,0,1,-3,-3v-20a3,3,0,0,1,3,-3z" stroke-width="1"></path><g id="node_text10" fill="black"><text id="kity_text_69" text-rendering="inherit" font-family="微软雅黑,Microsoft YaHei" font-size="14" dy=".8em" y="68.5" x="40.5">ZGC：一个可扩展的低延迟垃圾收集器</text></g></g><g id="minder_node11"><g id="node_expander10" style="cursor: pointer;" display="none"><path id="kity_path_113" fill="white" stroke="gray" d="M312.5,117.5A6,6,0,1,1,300.5,117.5A6,6,0,1,1,312.5,117.5"></path><path id="kity_path_114" fill="none" stroke="gray" d="M302,117.5L311,117.5"></path></g><path id="node_outline11" fill="rgb(246, 238, 242)" stroke="rgb(191, 115, 148)" d="M192.5,104.5h104a3,3,0,0,1,3,3v20a3,3,0,0,1,-3,3h-104a3,3,0,0,1,-3,-3v-20a3,3,0,0,1,3,-3z" stroke-width="1"></path><g id="node_text11" fill="black"><text id="kity_text_71" text-rendering="inherit" font-family="微软雅黑,Microsoft YaHei" font-size="14" dy=".8em" y="110.5" x="209.5">飞行记录器</text></g></g><g id="minder_node12"><g id="node_expander11" style="cursor: pointer;" display="none"><path id="kity_path_116" fill="white" stroke="gray" d="M312.5,159.5A6,6,0,1,1,300.5,159.5A6,6,0,1,1,312.5,159.5"></path><path id="kity_path_117" fill="none" stroke="gray"></path></g><path id="node_outline12" fill="rgb(246, 238, 242)" stroke="rgb(191, 115, 148)" d="M164.5,146.5h132a3,3,0,0,1,3,3v20a3,3,0,0,1,-3,3h-132a3,3,0,0,1,-3,-3v-20a3,3,0,0,1,3,-3z" stroke-width="1"></path><g id="node_text12" fill="black"><text id="kity_text_73" text-rendering="inherit" font-family="微软雅黑,Microsoft YaHei" font-size="14" dy=".8em" y="152.5" x="181.5">低开销的堆分析</text></g></g><g id="minder_node13"><g id="node_expander12" style="cursor: pointer;" display="none"><path id="kity_path_124" fill="white" stroke="gray" d="M312.5,201.5A6,6,0,1,1,300.5,201.5A6,6,0,1,1,312.5,201.5"></path><path id="kity_path_125" fill="none" stroke="gray"></path></g><path id="node_outline13" fill="rgb(246, 238, 242)" stroke="rgb(191, 115, 148)" d="M122.5,188.5h174a3,3,0,0,1,3,3v20a3,3,0,0,1,-3,3h-174a3,3,0,0,1,-3,-3v-20a3,3,0,0,1,3,-3z" stroke-width="1"></path><g id="node_text13" fill="black"><text id="kity_text_121" text-rendering="inherit" font-size="14" dy=".8em" y="194.5" font-family="微软雅黑,Microsoft YaHei" x="139.5">单文件源码程序的运行</text></g></g><g id="minder_node14"><g id="node_expander13" style="cursor: pointer;" display="none"><path id="kity_path_132" fill="white" stroke="gray" d="M312.5,243.5A6,6,0,1,1,300.5,243.5A6,6,0,1,1,312.5,243.5"></path><path id="kity_path_133" fill="none" stroke="gray"></path></g><path id="node_outline14" fill="rgb(246, 238, 242)" stroke="rgb(191, 115, 148)" d="M164.5,230.5h132a3,3,0,0,1,3,3v20a3,3,0,0,1,-3,3h-132a3,3,0,0,1,-3,-3v-20a3,3,0,0,1,3,-3z" stroke-width="1"></path><g id="node_text14" fill="black"><text id="kity_text_129" text-rendering="inherit" font-size="14" dy=".8em" y="236.5" font-family="微软雅黑,Microsoft YaHei" x="181.5">动态类文件常量</text></g></g><g id="minder_node16"><g id="node_expander15" style="cursor: pointer;" display="none"><path id="kity_path_148" fill="white" stroke="gray" d="M312.5,285.5A6,6,0,1,1,300.5,285.5A6,6,0,1,1,312.5,285.5"></path><path id="kity_path_149" fill="none" stroke="gray"></path></g><path id="node_outline16" fill="rgb(246, 238, 242)" stroke="rgb(191, 115, 148)" d="M94.5,272.5h202a3,3,0,0,1,3,3v20a3,3,0,0,1,-3,3h-202a3,3,0,0,1,-3,-3v-20a3,3,0,0,1,3,-3z" stroke-width="1"></path><g id="node_text16" fill="black"><text id="kity_text_145" text-rendering="inherit" font-size="14" dy=".8em" y="278.5" font-family="微软雅黑,Microsoft YaHei" x="111.5">支持 TLS（传输层安全）1.3</text></g></g></g></g></svg>