<svg xmlns="http://www.w3.org/2000/svg" width="384.96038818359375" height="211.6438751220703" viewBox="-219.4881591796875 -22.358673095703125 384.96038818359375 211.6438751220703"><title>Neo4j Graph Visualization</title><desc>Created using Neo4j (http://www.neo4j.com/)</desc><g class="layer relationships"><g class="relationship" transform="translate(26.03833080238948 160.28520307772706) rotate(334.691166218984)"><path class="b-outline" fill="#A5ABB6" stroke="none" d="M 25 0.5 L 35.36759601988767 0.5 L 35.36759601988767 -0.5 L 25 -0.5 Z M 79.79156147398923 0.5 L 90.1591574938769 0.5 L 90.1591574938769 3.5 L 97.1591574938769 0 L 90.1591574938769 -3.5 L 90.1591574938769 -0.5 L 79.79156147398923 -0.5 Z"/><text text-anchor="middle" pointer-events="none" font-size="8px" fill="#000000" x="57.57957874693845" y="3" font-family="Helvetica Neue, Helvetica, Arial, sans-serif">ACTED_IN</text></g><g class="relationship" transform="translate(26.03833080238948 160.28520307772706) rotate(294.5752086780866)"><path class="b-outline" fill="#A5ABB6" stroke="none" d="M 25 0.5 L 51.3925905509401 0.5 L 51.3925905509401 -0.5 L 25 -0.5 Z M 95.81655600504166 0.5 L 122.20914655598176 0.5 L 122.20914655598176 3.5 L 129.20914655598176 0 L 122.20914655598176 -3.5 L 122.20914655598176 -0.5 L 95.81655600504166 -0.5 Z"/><text text-anchor="middle" pointer-events="none" font-size="8px" fill="#000000" x="73.60457327799088" y="3" font-family="Helvetica Neue, Helvetica, Arial, sans-serif">ACTED_IN</text></g><g class="relationship" transform="translate(26.03833080238948 160.28520307772706) rotate(257.3062162686786)"><path class="b-outline" fill="#A5ABB6" stroke="none" d="M 25 0.5 L 53.034650450764246 0.5 L 53.034650450764246 -0.5 L 25 -0.5 Z M 97.45861590486581 0.5 L 125.49326635563006 0.5 L 125.49326635563006 3.5 L 132.49326635563006 0 L 125.49326635563006 -3.5 L 125.49326635563006 -0.5 L 97.45861590486581 -0.5 Z"/><text text-anchor="middle" pointer-events="none" font-size="8px" fill="#000000" x="75.24663317781503" y="3" transform="rotate(180 75.24663317781503 0)" font-family="Helvetica Neue, Helvetica, Arial, sans-serif">ACTED_IN</text></g><g class="relationship" transform="translate(-50.480875017076606 96.79992997371542) rotate(363.4474886515728)"><path class="b-outline" fill="#A5ABB6" stroke="none" d="M 25 0.5 L 67.93404472490933 0.5 L 67.93404472490933 -0.5 L 25 -0.5 Z M 112.35801017901089 0.5 L 155.29205490392022 0.5 L 155.29205490392022 3.5 L 162.29205490392022 0 L 155.29205490392022 -3.5 L 155.29205490392022 -0.5 L 112.35801017901089 -0.5 Z"/><text text-anchor="middle" pointer-events="none" font-size="8px" fill="#000000" x="90.14602745196011" y="3" font-family="Helvetica Neue, Helvetica, Arial, sans-serif">ACTED_IN</text></g><g class="relationship" transform="translate(-50.480875017076606 96.79992997371542) rotate(196.42836958973982)"><path class="b-outline" fill="#A5ABB6" stroke="none" d="M 25 0.5 L 47.271266332386205 0.5 L 47.271266332386205 -0.5 L 25 -0.5 Z M 91.69523178648777 0.5 L 113.96649811887397 0.5 L 113.96649811887397 3.5 L 120.96649811887397 0 L 113.96649811887397 -3.5 L 113.96649811887397 -0.5 L 91.69523178648777 -0.5 Z"/><text text-anchor="middle" pointer-events="none" font-size="8px" fill="#000000" x="69.48324905943699" y="3" transform="rotate(180 69.48324905943699 0)" font-family="Helvetica Neue, Helvetica, Arial, sans-serif">ACTED_IN</text></g></g><g class="layer nodes"><g class="node" aria-label="graph-node1" transform="translate(26.03833080238948,160.28520307772706)"><circle class="b-outline" cx="0" cy="0" r="25" fill="#F79767" stroke="#f36924" stroke-width="2px"/><text class="caption" text-anchor="middle" pointer-events="none" x="0" y="5" font-size="10px" fill="#FFFFFF" font-family="Helvetica Neue, Helvetica, Arial, sans-serif"> 吴京</text></g><g class="node" aria-label="graph-node3" transform="translate(136.47224306499027,108.06249937531413)"><circle class="b-outline" cx="0" cy="0" r="25" fill="#C990C0" stroke="#b261a5" stroke-width="2px"/><text class="caption" text-anchor="middle" pointer-events="none" x="0" y="5" font-size="10px" fill="#FFFFFF" font-family="Helvetica Neue, Helvetica, Arial, sans-serif"> 战狼 Ⅱ</text></g><g class="node" aria-label="graph-node4" transform="translate(90.17196191286756,20.044915563370537)"><circle class="b-outline" cx="0" cy="0" r="25" fill="#C990C0" stroke="#b261a5" stroke-width="2px"/><text class="caption" text-anchor="middle" pointer-events="none" x="0" y="5" font-size="10px" fill="#FFFFFF" font-family="Helvetica Neue, Helvetica, Arial, sans-serif"> 太极宗师</text></g><g class="node" aria-label="graph-node5" transform="translate(-8.569296727266972,6.641325672429837)"><circle class="b-outline" cx="0" cy="0" r="25" fill="#C990C0" stroke="#b261a5" stroke-width="2px"/><text class="caption" text-anchor="middle" pointer-events="none" x="0" y="0" font-size="10px" fill="#FFFFFF" font-family="Helvetica Neue, Helvetica, Arial, sans-serif"> 流浪地球</text><text class="caption" text-anchor="middle" pointer-events="none" x="0" y="10" font-size="10px" fill="#FFFFFF" font-family="Helvetica Neue, Helvetica, Arial, sans-serif"> Ⅱ</text></g><g class="node" aria-label="graph-node2" transform="translate(-50.480875017076606,96.79992997371542)"><circle class="b-outline" cx="0" cy="0" r="25" fill="#F79767" stroke="#f36924" stroke-width="2px"/><text class="caption" text-anchor="middle" pointer-events="none" x="0" y="5" font-size="10px" fill="#FFFFFF" font-family="Helvetica Neue, Helvetica, Arial, sans-serif"> 卢靖姗</text></g><g class="node" aria-label="graph-node6" transform="translate(-190.4881532950828,55.51820759840535)"><circle class="b-outline" cx="0" cy="0" r="25" fill="#C990C0" stroke="#b261a5" stroke-width="2px"/><text class="caption" text-anchor="middle" pointer-events="none" x="0" y="5" font-size="10px" fill="#FFFFFF" font-family="Helvetica Neue, Helvetica, Arial, sans-serif"> 我和我…</text></g></g></svg>