<svg xmlns="http://www.w3.org/2000/svg" width="591.28857421875" height="199.54074096679688" viewBox="-315.61785888671875 -64.2110595703125 591.28857421875 199.54074096679688"><title>Neo4j Graph Visualization</title><desc>Created using Neo4j (http://www.neo4j.com/)</desc><g class="layer relationships"><g class="relationship" transform="translate(-286.6178622196814 -30.020239250310738) rotate(420.04154179340696)"><path class="b-outline" fill="#A5ABB6" stroke="none" d="M 25 0.5 L 47.51075776640698 0.5 L 47.51075776640698 -0.5 L 25 -0.5 Z M 91.93472322050854 0.5 L 114.44548098691553 0.5 L 114.44548098691553 3.5 L 121.44548098691553 0 L 114.44548098691553 -3.5 L 114.44548098691553 -0.5 L 91.93472322050854 -0.5 Z"/><text text-anchor="middle" pointer-events="none" font-size="8px" fill="#000000" x="69.72274049345776" y="3" font-family="Helvetica Neue, Helvetica, Arial, sans-serif">ACTED_IN</text></g><g class="relationship" transform="translate(97.72156312435222 -33.940314987134286) rotate(493.5247442979377)"><path class="b-outline" fill="#A5ABB6" stroke="none" d="M 25 0.5 L 58.34087273661267 0.5 L 58.34087273661267 -0.5 L 25 -0.5 Z M 102.76483819071423 0.5 L 136.1057109273269 0.5 L 136.1057109273269 3.5 L 143.1057109273269 0 L 136.1057109273269 -3.5 L 136.1057109273269 -0.5 L 102.76483819071423 -0.5 Z"/><text text-anchor="middle" pointer-events="none" font-size="8px" fill="#000000" x="80.55285546366345" y="3" transform="rotate(180 80.55285546366345 0)" font-family="Helvetica Neue, Helvetica, Arial, sans-serif">ACTED_IN</text></g><g class="relationship" transform="translate(97.72156312435222 -33.940314987134286) rotate(438.9590340403375)"><path class="b-outline" fill="#A5ABB6" stroke="none" d="M 25 0.5 L 45.74565616770484 0.5 L 45.74565616770484 -0.5 L 25 -0.5 Z M 90.1696216218064 0.5 L 110.91527778951124 0.5 L 110.91527778951124 3.5 L 117.91527778951124 0 L 110.91527778951124 -3.5 L 110.91527778951124 -0.5 L 90.1696216218064 -0.5 Z"/><text text-anchor="middle" pointer-events="none" font-size="8px" fill="#000000" x="67.95763889475562" y="3" font-family="Helvetica Neue, Helvetica, Arial, sans-serif">ACTED_IN</text></g><g class="relationship" transform="translate(97.72156312435222 -33.940314987134286) rotate(385.9930852455741)"><path class="b-outline" fill="#A5ABB6" stroke="none" d="M 25 0.5 L 57.143707582323074 0.5 L 57.143707582323074 -0.5 L 25 -0.5 Z M 101.56767303642464 0.5 L 133.7113806187477 0.5 L 133.7113806187477 3.5 L 140.7113806187477 0 L 133.7113806187477 -3.5 L 133.7113806187477 -0.5 L 101.56767303642464 -0.5 Z"/><text text-anchor="middle" pointer-events="none" font-size="8px" fill="#000000" x="79.35569030937386" y="3" font-family="Helvetica Neue, Helvetica, Arial, sans-serif">ACTED_IN</text></g><g class="relationship" transform="translate(-89.15977004778816 -35.21105992356564) rotate(419.99801301829416)"><path class="b-outline" fill="#A5ABB6" stroke="none" d="M 25 0.5 L 45.39609277559839 0.5 L 45.39609277559839 -0.5 L 25 -0.5 Z M 89.82005822969995 0.5 L 110.21615100529834 0.5 L 110.21615100529834 3.5 L 117.21615100529834 0 L 110.21615100529834 -3.5 L 110.21615100529834 -0.5 L 89.82005822969995 -0.5 Z"/><text text-anchor="middle" pointer-events="none" font-size="8px" fill="#000000" x="67.60807550264917" y="3" font-family="Helvetica Neue, Helvetica, Arial, sans-serif">ACTED_IN</text></g><g class="relationship" transform="translate(-89.15977004778816 -35.21105992356564) rotate(493.27044362001686)"><path class="b-outline" fill="#A5ABB6" stroke="none" d="M 25 0.5 L 64.97925960032558 0.5 L 64.97925960032558 -0.5 L 25 -0.5 Z M 109.40322505442714 0.5 L 149.38248465475272 0.5 L 149.38248465475272 3.5 L 156.38248465475272 0 L 149.38248465475272 -3.5 L 149.38248465475272 -0.5 L 109.40322505442714 -0.5 Z"/><text text-anchor="middle" pointer-events="none" font-size="8px" fill="#000000" x="87.19124232737636" y="3" transform="rotate(180 87.19124232737636 0)" font-family="Helvetica Neue, Helvetica, Arial, sans-serif">ACTED_IN</text></g></g><g class="layer nodes"><g class="node" aria-label="graph-node0" transform="translate(-286.6178622196814,-30.020239250310738)"><circle class="b-outline" cx="0" cy="0" r="25" fill="#F79767" stroke="#f36924" stroke-width="2px"/><text class="caption" text-anchor="middle" pointer-events="none" x="0" y="5" font-size="10px" fill="#FFFFFF" font-family="Helvetica Neue, Helvetica, Arial, sans-serif"> 葛优</text></g><g class="node" aria-label="graph-node8" transform="translate(-213.48709466562553,96.85832370830605)"><circle class="b-outline" cx="0" cy="0" r="25" fill="#C990C0" stroke="#b261a5" stroke-width="2px"/><text class="caption" text-anchor="middle" pointer-events="none" x="0" y="5" font-size="10px" fill="#FFFFFF" font-family="Helvetica Neue, Helvetica, Arial, sans-serif"> 我和我…</text></g><g class="node" aria-label="graph-node9" transform="translate(97.72156312435222,-33.940314987134286)"><circle class="b-outline" cx="0" cy="0" r="25" fill="#F79767" stroke="#f36924" stroke-width="2px"/><text class="caption" text-anchor="middle" pointer-events="none" x="0" y="5" font-size="10px" fill="#FFFFFF" font-family="Helvetica Neue, Helvetica, Arial, sans-serif"> 吴京</text></g><g class="node" aria-label="graph-node6" transform="translate(-18.04742337923917,87.94927361793597)"><circle class="b-outline" cx="0" cy="0" r="25" fill="#C990C0" stroke="#b261a5" stroke-width="2px"/><text class="caption" text-anchor="middle" pointer-events="none" x="0" y="5" font-size="10px" fill="#FFFFFF" font-family="Helvetica Neue, Helvetica, Arial, sans-serif"> 战狼 Ⅱ</text></g><g class="node" aria-label="graph-node7" transform="translate(125.09138245266796,106.32967330540289)"><circle class="b-outline" cx="0" cy="0" r="25" fill="#C990C0" stroke="#b261a5" stroke-width="2px"/><text class="caption" text-anchor="middle" pointer-events="none" x="0" y="0" font-size="10px" fill="#FFFFFF" font-family="Helvetica Neue, Helvetica, Arial, sans-serif"> 流浪地球</text><text class="caption" text-anchor="middle" pointer-events="none" x="0" y="10" font-size="10px" fill="#FFFFFF" font-family="Helvetica Neue, Helvetica, Arial, sans-serif"> Ⅱ</text></g><g class="node" aria-label="graph-node11" transform="translate(246.67073129172516,38.68479753476916)"><circle class="b-outline" cx="0" cy="0" r="25" fill="#C990C0" stroke="#b261a5" stroke-width="2px"/><text class="caption" text-anchor="middle" pointer-events="none" x="0" y="5" font-size="10px" fill="#FFFFFF" font-family="Helvetica Neue, Helvetica, Arial, sans-serif"> 太极宗师</text></g><g class="node" aria-label="graph-node10" transform="translate(-89.15977004778816,-35.21105992356564)"><circle class="b-outline" cx="0" cy="0" r="25" fill="#F79767" stroke="#f36924" stroke-width="2px"/><text class="caption" text-anchor="middle" pointer-events="none" x="0" y="5" font-size="10px" fill="#FFFFFF" font-family="Helvetica Neue, Helvetica, Arial, sans-serif"> 卢靖姗</text></g></g></svg>